<svg id="svg" version="1.1" xmlns="http://www.w3.org/2000/svg" xmlns:xlink="http://www.w3.org/1999/xlink" width="400" height="400" viewBox="0, 0, 400,400"><g id="svgg"><path id="path1" d="M85.600 0.800 C 85.600 1.020,85.338 1.200,85.018 1.200 C 84.698 1.200,83.986 1.650,83.436 2.200 C 82.886 2.750,82.248 3.200,82.018 3.200 C 81.788 3.200,81.600 3.368,81.600 3.573 C 81.600 3.778,81.195 4.074,80.700 4.230 C 80.205 4.387,79.509 4.849,79.153 5.257 C 78.797 5.666,78.364 6.000,78.191 6.000 C 78.017 6.000,77.286 6.450,76.564 7.000 C 75.843 7.550,75.127 8.000,74.974 8.000 C 74.820 8.000,74.403 8.334,74.047 8.743 C 73.691 9.151,72.995 9.613,72.500 9.770 C 72.005 9.926,71.600 10.222,71.600 10.427 C 71.600 10.632,71.412 10.800,71.182 10.800 C 70.952 10.800,70.314 11.250,69.764 11.800 C 69.214 12.350,68.542 12.800,68.270 12.800 C 67.999 12.800,67.517 13.160,67.200 13.600 C 66.883 14.040,66.393 14.400,66.112 14.400 C 65.830 14.400,65.600 14.558,65.600 14.751 C 65.600 14.945,65.073 15.321,64.429 15.588 C 63.785 15.855,62.930 16.437,62.529 16.882 C 62.128 17.328,61.440 17.851,61.000 18.045 C 59.778 18.584,58.680 19.327,57.959 20.100 C 57.600 20.485,57.110 20.800,56.871 20.800 C 56.632 20.800,55.986 21.250,55.436 21.800 C 54.886 22.350,54.248 22.800,54.018 22.800 C 53.788 22.800,53.600 22.968,53.600 23.173 C 53.600 23.378,53.195 23.674,52.700 23.830 C 52.205 23.987,51.509 24.449,51.153 24.857 C 50.797 25.266,50.380 25.600,50.226 25.600 C 50.073 25.600,49.357 26.050,48.636 26.600 C 47.914 27.150,47.129 27.600,46.889 27.600 C 46.650 27.600,46.340 27.960,46.200 28.400 C 46.060 28.840,45.611 29.200,45.202 29.200 C 44.792 29.200,44.187 29.470,43.857 29.800 C 43.527 30.130,43.146 30.400,43.010 30.400 C 42.875 30.400,42.314 30.850,41.764 31.400 C 41.214 31.950,40.542 32.400,40.270 32.400 C 39.999 32.400,39.517 32.760,39.200 33.200 C 38.883 33.640,38.393 34.000,38.112 34.000 C 37.830 34.000,37.600 34.177,37.600 34.392 C 37.600 34.608,37.184 34.889,36.676 35.017 C 36.167 35.144,35.252 35.778,34.642 36.424 C 34.032 37.071,33.272 37.600,32.954 37.600 C 32.635 37.600,32.271 37.870,32.145 38.200 C 32.018 38.530,31.613 38.800,31.246 38.800 C 30.878 38.800,30.317 39.160,30.000 39.600 C 29.683 40.040,29.201 40.400,28.930 40.400 C 28.658 40.400,27.986 40.850,27.436 41.400 C 26.886 41.950,26.248 42.400,26.018 42.400 C 25.788 42.400,25.600 42.568,25.600 42.773 C 25.600 42.978,25.195 43.274,24.700 43.430 C 24.205 43.587,23.509 44.049,23.153 44.457 C 22.797 44.866,22.380 45.200,22.226 45.200 C 21.378 45.200,19.200 47.393,19.200 48.247 C 19.200 48.771,19.380 49.200,19.600 49.200 C 19.820 49.200,20.000 49.427,20.000 49.704 C 20.000 49.981,20.450 50.693,21.000 51.287 C 21.550 51.880,22.000 52.520,22.000 52.710 C 22.000 52.900,22.450 53.447,23.000 53.925 C 23.550 54.403,24.000 55.021,24.000 55.299 C 24.000 55.576,24.540 56.312,25.200 56.935 C 25.860 57.558,26.400 58.328,26.400 58.646 C 26.400 58.965,26.670 59.329,27.000 59.455 C 27.330 59.582,27.600 59.960,27.600 60.296 C 27.600 60.632,27.934 61.197,28.343 61.553 C 28.751 61.909,29.213 62.605,29.370 63.100 C 29.526 63.595,29.822 64.000,30.027 64.000 C 30.232 64.000,30.400 64.230,30.400 64.512 C 30.400 64.793,30.760 65.283,31.200 65.600 C 31.640 65.917,32.000 66.503,32.000 66.901 C 32.000 67.299,32.270 67.729,32.600 67.855 C 32.930 67.982,33.200 68.426,33.200 68.843 C 33.200 69.259,33.364 69.600,33.564 69.600 C 33.765 69.600,34.328 70.425,34.816 71.432 C 35.303 72.440,35.949 73.359,36.251 73.475 C 36.553 73.591,36.800 74.026,36.800 74.443 C 36.800 74.859,36.960 75.200,37.157 75.200 C 37.353 75.200,37.633 75.678,37.780 76.261 C 37.926 76.845,38.565 78.078,39.200 79.000 C 39.835 79.922,40.474 81.155,40.620 81.739 C 40.767 82.322,41.047 82.800,41.243 82.800 C 41.440 82.800,41.600 83.160,41.600 83.600 C 41.600 84.040,41.780 84.400,42.000 84.400 C 42.220 84.400,42.400 84.649,42.400 84.954 C 42.400 85.259,42.669 86.024,42.998 86.654 C 43.326 87.284,43.596 88.115,43.598 88.500 C 43.599 88.885,43.780 89.200,44.000 89.200 C 44.220 89.200,44.400 89.650,44.400 90.200 C 44.400 90.750,44.580 91.200,44.800 91.200 C 45.020 91.200,45.200 91.560,45.200 92.000 C 45.200 92.440,45.350 92.800,45.533 92.800 C 45.826 92.800,46.068 93.702,47.063 98.500 C 47.188 99.105,47.450 99.600,47.645 99.600 C 47.840 99.600,48.000 100.410,48.000 101.400 C 48.000 102.390,48.166 103.200,48.370 103.200 C 48.573 103.200,48.867 104.824,49.022 106.809 C 49.178 108.793,49.461 110.514,49.652 110.632 C 49.844 110.751,50.000 111.906,50.000 113.200 C 50.000 114.494,50.180 115.664,50.400 115.800 C 50.620 115.936,50.801 117.252,50.803 118.724 C 50.805 120.196,51.001 122.930,51.239 124.800 C 52.188 132.247,52.479 164.448,52.637 279.500 L 52.803 399.600 92.002 399.600 L 131.202 399.600 131.023 257.700 C 130.924 179.655,130.734 113.155,130.601 109.922 L 130.359 104.044 131.480 102.322 C 132.096 101.375,132.735 100.540,132.900 100.467 C 133.065 100.393,133.200 100.087,133.200 99.786 C 133.200 99.485,133.830 98.627,134.600 97.879 C 135.370 97.131,136.000 96.404,136.000 96.263 C 136.000 95.863,137.512 94.210,141.121 90.663 C 145.153 86.701,145.482 86.400,145.771 86.400 C 145.896 86.400,146.666 85.770,147.482 85.000 C 148.299 84.230,149.133 83.600,149.336 83.600 C 149.540 83.600,149.997 83.266,150.353 82.857 C 150.709 82.449,151.405 81.987,151.900 81.830 C 152.395 81.674,152.800 81.378,152.800 81.173 C 152.800 80.968,153.070 80.800,153.400 80.800 C 153.730 80.800,154.000 80.620,154.000 80.400 C 154.000 80.180,154.360 80.000,154.800 80.000 C 155.240 80.000,155.600 79.823,155.600 79.608 C 155.600 79.392,156.050 79.102,156.600 78.964 C 157.150 78.826,157.600 78.553,157.600 78.357 C 157.600 78.160,158.050 78.000,158.600 78.000 C 159.150 78.000,159.600 77.820,159.600 77.600 C 159.600 77.380,160.035 77.200,160.567 77.200 C 161.098 77.200,161.597 77.009,161.675 76.775 C 161.889 76.133,169.287 76.062,169.500 76.700 C 169.592 76.975,170.102 77.200,170.633 77.200 C 171.165 77.200,171.600 77.380,171.600 77.600 C 171.600 77.820,171.960 78.000,172.400 78.000 C 172.840 78.000,173.200 78.168,173.200 78.373 C 173.200 78.578,173.581 78.867,174.048 79.015 C 174.514 79.163,175.435 79.800,176.094 80.430 C 176.754 81.060,177.632 81.683,178.047 81.815 C 178.461 81.946,178.800 82.214,178.800 82.409 C 178.800 82.870,180.730 84.800,181.191 84.800 C 181.386 84.800,181.657 85.149,181.792 85.575 C 181.927 86.001,183.019 87.379,184.219 88.638 C 185.419 89.896,186.400 91.101,186.400 91.316 C 186.400 91.530,186.985 92.276,187.700 92.973 C 189.020 94.260,189.479 94.883,190.637 96.962 C 190.994 97.602,191.624 98.488,192.038 98.933 C 192.452 99.377,192.905 100.100,193.044 100.540 C 193.184 100.979,193.636 101.701,194.049 102.145 C 194.462 102.588,194.800 103.187,194.800 103.475 C 194.800 103.764,194.972 104.000,195.182 104.000 C 195.392 104.000,195.682 104.632,195.827 105.404 C 195.972 106.177,196.250 106.907,196.445 107.028 C 196.640 107.149,196.800 107.597,196.800 108.024 C 196.800 108.451,196.980 108.800,197.200 108.800 C 197.420 108.800,197.600 109.329,197.600 109.976 C 197.600 110.623,197.780 111.264,198.000 111.400 C 198.265 111.564,198.400 160.071,198.400 255.624 L 198.400 399.600 237.800 399.600 L 277.200 399.600 277.200 246.200 C 277.200 156.346,277.052 92.800,276.842 92.800 C 276.646 92.800,276.357 91.179,276.200 89.197 C 276.043 87.216,275.754 85.495,275.557 85.374 C 275.361 85.252,275.200 84.809,275.200 84.389 C 275.200 83.968,274.868 83.034,274.463 82.312 C 274.058 81.590,273.596 80.303,273.436 79.451 C 273.111 77.720,272.517 76.505,271.554 75.604 C 271.198 75.271,270.779 74.414,270.622 73.700 C 270.465 72.985,270.171 72.400,269.968 72.400 C 269.766 72.400,269.600 72.212,269.600 71.982 C 269.600 71.752,269.150 71.114,268.600 70.564 C 268.050 70.014,267.600 69.374,267.600 69.142 C 267.600 68.911,267.097 68.244,266.483 67.660 C 265.869 67.077,264.834 65.887,264.183 65.015 C 262.816 63.184,248.366 48.681,246.429 47.196 C 245.715 46.648,243.812 44.895,242.202 43.300 C 240.592 41.705,239.132 40.400,238.958 40.400 C 238.654 40.400,237.703 39.516,234.545 36.300 C 233.734 35.475,232.918 34.800,232.731 34.800 C 232.543 34.800,231.191 33.630,229.725 32.200 C 228.259 30.770,226.932 29.600,226.776 29.600 C 226.619 29.600,225.532 28.700,224.361 27.600 C 223.189 26.500,222.110 25.600,221.963 25.600 C 221.817 25.600,220.992 24.925,220.132 24.100 C 219.272 23.275,218.060 22.240,217.439 21.800 C 216.819 21.360,216.074 20.775,215.784 20.500 C 215.494 20.225,215.146 20.000,215.010 20.000 C 214.875 20.000,214.330 19.595,213.801 19.100 C 212.364 17.756,211.661 17.200,211.399 17.200 C 211.269 17.200,210.714 16.750,210.164 16.200 C 209.614 15.650,208.942 15.200,208.670 15.200 C 208.399 15.200,207.917 14.840,207.600 14.400 C 207.283 13.960,206.870 13.600,206.683 13.600 C 206.496 13.600,206.092 13.375,205.785 13.100 C 204.462 11.913,204.009 11.600,203.617 11.600 C 203.388 11.600,203.200 11.420,203.200 11.200 C 203.200 10.980,202.952 10.800,202.649 10.800 C 202.346 10.800,201.874 10.530,201.600 10.200 C 201.326 9.870,200.804 9.600,200.439 9.600 C 200.075 9.600,199.517 9.240,199.200 8.800 C 198.883 8.360,198.393 8.000,198.112 8.000 C 197.830 8.000,197.600 7.843,197.600 7.650 C 197.600 7.457,197.105 7.200,196.500 7.077 C 195.895 6.955,195.040 6.522,194.600 6.114 C 193.642 5.228,191.124 4.000,190.263 4.000 C 189.924 4.000,189.536 3.820,189.400 3.600 C 189.264 3.380,188.803 3.200,188.376 3.200 C 187.949 3.200,187.600 3.064,187.600 2.898 C 187.600 2.393,185.523 1.655,183.291 1.367 C 182.131 1.217,181.085 0.938,180.967 0.747 C 180.681 0.285,172.910 0.299,172.623 0.763 C 172.500 0.962,171.500 1.249,170.400 1.400 C 169.300 1.551,168.300 1.838,168.177 2.037 C 168.054 2.237,167.513 2.400,166.976 2.400 C 166.439 2.400,166.000 2.580,166.000 2.800 C 166.000 3.020,165.730 3.200,165.400 3.200 C 165.070 3.200,164.800 3.380,164.800 3.600 C 164.800 3.820,164.446 4.000,164.014 4.000 C 162.992 4.000,160.368 5.216,159.600 6.045 C 159.269 6.401,158.414 6.821,157.700 6.978 C 156.985 7.135,156.400 7.429,156.400 7.632 C 156.400 7.834,156.164 8.000,155.875 8.000 C 155.587 8.000,154.997 8.315,154.565 8.700 C 154.132 9.085,153.108 9.743,152.289 10.163 C 151.470 10.583,150.800 11.078,150.800 11.263 C 150.800 11.448,150.459 11.600,150.043 11.600 C 149.626 11.600,149.182 11.870,149.055 12.200 C 148.929 12.530,148.499 12.800,148.101 12.800 C 147.703 12.800,147.117 13.160,146.800 13.600 C 146.483 14.040,145.993 14.400,145.712 14.400 C 145.430 14.400,145.200 14.568,145.200 14.773 C 145.200 14.978,144.795 15.274,144.300 15.430 C 143.805 15.587,143.109 16.049,142.753 16.457 C 142.397 16.866,141.945 17.200,141.749 17.200 C 141.553 17.200,140.907 17.650,140.313 18.200 C 139.720 18.750,138.969 19.200,138.644 19.200 C 138.320 19.200,137.940 19.560,137.800 20.000 C 137.660 20.440,137.211 20.800,136.802 20.800 C 136.393 20.800,135.704 21.250,135.271 21.800 C 134.839 22.350,134.312 22.800,134.101 22.800 C 133.890 22.800,133.231 23.250,132.638 23.800 C 132.044 24.350,131.416 24.800,131.241 24.800 C 131.066 24.800,130.274 25.430,129.481 26.200 C 128.688 26.970,127.861 27.600,127.643 27.600 C 127.424 27.600,127.010 27.918,126.723 28.307 C 126.435 28.696,125.669 29.353,125.021 29.768 C 124.372 30.183,123.419 30.945,122.902 31.461 C 122.386 31.978,121.814 32.400,121.632 32.400 C 121.449 32.400,120.455 33.210,119.422 34.200 C 117.576 35.969,116.400 36.057,116.400 34.429 C 116.400 34.193,116.240 34.000,116.043 34.000 C 115.847 34.000,115.574 33.550,115.436 33.000 C 115.298 32.450,115.008 32.000,114.792 32.000 C 114.577 32.000,114.400 31.640,114.400 31.200 C 114.400 30.760,114.220 30.400,114.000 30.400 C 113.780 30.400,113.600 30.130,113.600 29.800 C 113.600 29.470,113.438 29.200,113.239 29.200 C 113.041 29.200,112.689 28.658,112.458 27.995 C 112.227 27.332,111.759 26.683,111.419 26.552 C 111.079 26.421,110.800 25.974,110.800 25.557 C 110.800 25.141,110.632 24.800,110.427 24.800 C 110.222 24.800,109.926 24.395,109.770 23.900 C 109.613 23.405,109.151 22.709,108.743 22.353 C 108.334 21.997,108.000 21.579,108.000 21.425 C 108.000 21.270,107.775 20.892,107.500 20.585 C 106.423 19.384,106.000 18.824,106.000 18.599 C 106.000 18.469,105.550 17.914,105.000 17.364 C 104.450 16.814,104.000 16.190,104.000 15.979 C 104.000 15.450,91.786 3.200,91.259 3.200 C 91.027 3.200,90.386 2.750,89.836 2.200 C 89.286 1.650,88.558 1.200,88.218 1.200 C 87.878 1.200,87.600 1.020,87.600 0.800 C 87.600 0.580,87.150 0.400,86.600 0.400 C 86.050 0.400,85.600 0.580,85.600 0.800 " stroke="none" fill="#040404" fill-rule="evenodd"></path><path id="path2" d="" stroke="none" fill="#24a0c0" fill-rule="evenodd"></path><path id="path3" d="" stroke="none" fill="#245440" fill-rule="evenodd"></path><path id="path0" d="M326.800 227.200 L 326.800 254.800 354.400 254.800 L 382.000 254.800 382.000 227.200 L 382.000 199.600 354.400 199.600 L 326.800 199.600 326.800 227.200 M326.800 300.000 L 326.800 327.600 354.400 327.600 L 382.000 327.600 382.000 300.000 L 382.000 272.400 354.400 272.400 L 326.800 272.400 326.800 300.000 M326.800 372.600 L 326.800 400.000 354.400 400.000 L 382.000 400.000 382.000 372.600 L 382.000 345.200 354.400 345.200 L 326.800 345.200 326.800 372.600 " stroke="none" fill="#449cfc" fill-rule="evenodd"></path><path id="path1" d="M85.600 0.800 C 85.600 1.020,85.338 1.200,85.018 1.200 C 84.698 1.200,83.986 1.650,83.436 2.200 C 82.886 2.750,82.248 3.200,82.018 3.200 C 81.788 3.200,81.600 3.368,81.600 3.573 C 81.600 3.778,81.195 4.074,80.700 4.230 C 80.205 4.387,79.509 4.849,79.153 5.257 C 78.797 5.666,78.364 6.000,78.191 6.000 C 78.017 6.000,77.286 6.450,76.564 7.000 C 75.843 7.550,75.127 8.000,74.974 8.000 C 74.820 8.000,74.403 8.334,74.047 8.743 C 73.691 9.151,72.995 9.613,72.500 9.770 C 72.005 9.926,71.600 10.222,71.600 10.427 C 71.600 10.632,71.412 10.800,71.182 10.800 C 70.952 10.800,70.314 11.250,69.764 11.800 C 69.214 12.350,68.542 12.800,68.270 12.800 C 67.999 12.800,67.517 13.160,67.200 13.600 C 66.883 14.040,66.393 14.400,66.112 14.400 C 65.830 14.400,65.600 14.558,65.600 14.751 C 65.600 14.945,65.073 15.321,64.429 15.588 C 63.785 15.855,62.930 16.437,62.529 16.882 C 62.128 17.328,61.440 17.851,61.000 18.045 C 59.778 18.584,58.680 19.327,57.959 20.100 C 57.600 20.485,57.110 20.800,56.871 20.800 C 56.632 20.800,55.986 21.250,55.436 21.800 C 54.886 22.350,54.248 22.800,54.018 22.800 C 53.788 22.800,53.600 22.968,53.600 23.173 C 53.600 23.378,53.195 23.674,52.700 23.830 C 52.205 23.987,51.509 24.449,51.153 24.857 C 50.797 25.266,50.380 25.600,50.226 25.600 C 50.073 25.600,49.357 26.050,48.636 26.600 C 47.914 27.150,47.129 27.600,46.889 27.600 C 46.650 27.600,46.340 27.960,46.200 28.400 C 46.060 28.840,45.611 29.200,45.202 29.200 C 44.792 29.200,44.187 29.470,43.857 29.800 C 43.527 30.130,43.146 30.400,43.010 30.400 C 42.875 30.400,42.314 30.850,41.764 31.400 C 41.214 31.950,40.542 32.400,40.270 32.400 C 39.999 32.400,39.517 32.760,39.200 33.200 C 38.883 33.640,38.393 34.000,38.112 34.000 C 37.830 34.000,37.600 34.177,37.600 34.392 C 37.600 34.608,37.184 34.889,36.676 35.017 C 36.167 35.144,35.252 35.778,34.642 36.424 C 34.032 37.071,33.272 37.600,32.954 37.600 C 32.635 37.600,32.271 37.870,32.145 38.200 C 32.018 38.530,31.613 38.800,31.246 38.800 C 30.878 38.800,30.317 39.160,30.000 39.600 C 29.683 40.040,29.201 40.400,28.930 40.400 C 28.658 40.400,27.986 40.850,27.436 41.400 C 26.886 41.950,26.248 42.400,26.018 42.400 C 25.788 42.400,25.600 42.568,25.600 42.773 C 25.600 42.978,25.195 43.274,24.700 43.430 C 24.205 43.587,23.509 44.049,23.153 44.457 C 22.797 44.866,22.380 45.200,22.226 45.200 C 21.378 45.200,19.200 47.393,19.200 48.247 C 19.200 48.771,19.380 49.200,19.600 49.200 C 19.820 49.200,20.000 49.427,20.000 49.704 C 20.000 49.981,20.450 50.693,21.000 51.287 C 21.550 51.880,22.000 52.520,22.000 52.710 C 22.000 52.900,22.450 53.447,23.000 53.925 C 23.550 54.403,24.000 55.021,24.000 55.299 C 24.000 55.576,24.540 56.312,25.200 56.935 C 25.860 57.558,26.400 58.328,26.400 58.646 C 26.400 58.965,26.670 59.329,27.000 59.455 C 27.330 59.582,27.600 59.960,27.600 60.296 C 27.600 60.632,27.934 61.197,28.343 61.553 C 28.751 61.909,29.213 62.605,29.370 63.100 C 29.526 63.595,29.822 64.000,30.027 64.000 C 30.232 64.000,30.400 64.230,30.400 64.512 C 30.400 64.793,30.760 65.283,31.200 65.600 C 31.640 65.917,32.000 66.503,32.000 66.901 C 32.000 67.299,32.270 67.729,32.600 67.855 C 32.930 67.982,33.200 68.426,33.200 68.843 C 33.200 69.259,33.364 69.600,33.564 69.600 C 33.765 69.600,34.328 70.425,34.816 71.432 C 35.303 72.440,35.949 73.359,36.251 73.475 C 36.553 73.591,36.800 74.026,36.800 74.443 C 36.800 74.859,36.960 75.200,37.157 75.200 C 37.353 75.200,37.633 75.678,37.780 76.261 C 37.926 76.845,38.565 78.078,39.200 79.000 C 39.835 79.922,40.474 81.155,40.620 81.739 C 40.767 82.322,41.047 82.800,41.243 82.800 C 41.440 82.800,41.600 83.160,41.600 83.600 C 41.600 84.040,41.780 84.400,42.000 84.400 C 42.220 84.400,42.400 84.649,42.400 84.954 C 42.400 85.259,42.669 86.024,42.998 86.654 C 43.326 87.284,43.596 88.115,43.598 88.500 C 43.599 88.885,43.780 89.200,44.000 89.200 C 44.220 89.200,44.400 89.650,44.400 90.200 C 44.400 90.750,44.580 91.200,44.800 91.200 C 45.020 91.200,45.200 91.560,45.200 92.000 C 45.200 92.440,45.350 92.800,45.533 92.800 C 45.826 92.800,46.068 93.702,47.063 98.500 C 47.188 99.105,47.450 99.600,47.645 99.600 C 47.840 99.600,48.000 100.410,48.000 101.400 C 48.000 102.390,48.166 103.200,48.370 103.200 C 48.573 103.200,48.867 104.824,49.022 106.809 C 49.178 108.793,49.461 110.514,49.652 110.632 C 49.844 110.751,50.000 111.906,50.000 113.200 C 50.000 114.494,50.180 115.664,50.400 115.800 C 50.620 115.936,50.801 117.252,50.803 118.724 C 50.805 120.196,51.001 122.930,51.239 124.800 C 52.188 132.247,52.479 164.448,52.637 279.500 L 52.803 399.600 92.002 399.600 L 131.202 399.600 131.023 257.700 C 130.924 179.655,130.734 113.155,130.601 109.922 L 130.359 104.044 131.480 102.322 C 132.096 101.375,132.735 100.540,132.900 100.467 C 133.065 100.393,133.200 100.087,133.200 99.786 C 133.200 99.485,133.830 98.627,134.600 97.879 C 135.370 97.131,136.000 96.404,136.000 96.263 C 136.000 95.863,137.512 94.210,141.121 90.663 C 145.153 86.701,145.482 86.400,145.771 86.400 C 145.896 86.400,146.666 85.770,147.482 85.000 C 148.299 84.230,149.133 83.600,149.336 83.600 C 149.540 83.600,149.997 83.266,150.353 82.857 C 150.709 82.449,151.405 81.987,151.900 81.830 C 152.395 81.674,152.800 81.378,152.800 81.173 C 152.800 80.968,153.070 80.800,153.400 80.800 C 153.730 80.800,154.000 80.620,154.000 80.400 C 154.000 80.180,154.360 80.000,154.800 80.000 C 155.240 80.000,155.600 79.823,155.600 79.608 C 155.600 79.392,156.050 79.102,156.600 78.964 C 157.150 78.826,157.600 78.553,157.600 78.357 C 157.600 78.160,158.050 78.000,158.600 78.000 C 159.150 78.000,159.600 77.820,159.600 77.600 C 159.600 77.380,160.035 77.200,160.567 77.200 C 161.098 77.200,161.597 77.009,161.675 76.775 C 161.889 76.133,169.287 76.062,169.500 76.700 C 169.592 76.975,170.102 77.200,170.633 77.200 C 171.165 77.200,171.600 77.380,171.600 77.600 C 171.600 77.820,171.960 78.000,172.400 78.000 C 172.840 78.000,173.200 78.168,173.200 78.373 C 173.200 78.578,173.581 78.867,174.048 79.015 C 174.514 79.163,175.435 79.800,176.094 80.430 C 176.754 81.060,177.632 81.683,178.047 81.815 C 178.461 81.946,178.800 82.214,178.800 82.409 C 178.800 82.870,180.730 84.800,181.191 84.800 C 181.386 84.800,181.657 85.149,181.792 85.575 C 181.927 86.001,183.019 87.379,184.219 88.638 C 185.419 89.896,186.400 91.101,186.400 91.316 C 186.400 91.530,186.985 92.276,187.700 92.973 C 189.020 94.260,189.479 94.883,190.637 96.962 C 190.994 97.602,191.624 98.488,192.038 98.933 C 192.452 99.377,192.905 100.100,193.044 100.540 C 193.184 100.979,193.636 101.701,194.049 102.145 C 194.462 102.588,194.800 103.187,194.800 103.475 C 194.800 103.764,194.972 104.000,195.182 104.000 C 195.392 104.000,195.682 104.632,195.827 105.404 C 195.972 106.177,196.250 106.907,196.445 107.028 C 196.640 107.149,196.800 107.597,196.800 108.024 C 196.800 108.451,196.980 108.800,197.200 108.800 C 197.420 108.800,197.600 109.329,197.600 109.976 C 197.600 110.623,197.780 111.264,198.000 111.400 C 198.265 111.564,198.400 160.071,198.400 255.624 L 198.400 399.600 237.800 399.600 L 277.200 399.600 277.200 246.200 C 277.200 156.346,277.052 92.800,276.842 92.800 C 276.646 92.800,276.357 91.179,276.200 89.197 C 276.043 87.216,275.754 85.495,275.557 85.374 C 275.361 85.252,275.200 84.809,275.200 84.389 C 275.200 83.968,274.868 83.034,274.463 82.312 C 274.058 81.590,273.596 80.303,273.436 79.451 C 273.111 77.720,272.517 76.505,271.554 75.604 C 271.198 75.271,270.779 74.414,270.622 73.700 C 270.465 72.985,270.171 72.400,269.968 72.400 C 269.766 72.400,269.600 72.212,269.600 71.982 C 269.600 71.752,269.150 71.114,268.600 70.564 C 268.050 70.014,267.600 69.374,267.600 69.142 C 267.600 68.911,267.097 68.244,266.483 67.660 C 265.869 67.077,264.834 65.887,264.183 65.015 C 262.816 63.184,248.366 48.681,246.429 47.196 C 245.715 46.648,243.812 44.895,242.202 43.300 C 240.592 41.705,239.132 40.400,238.958 40.400 C 238.654 40.400,237.703 39.516,234.545 36.300 C 233.734 35.475,232.918 34.800,232.731 34.800 C 232.543 34.800,231.191 33.630,229.725 32.200 C 228.259 30.770,226.932 29.600,226.776 29.600 C 226.619 29.600,225.532 28.700,224.361 27.600 C 223.189 26.500,222.110 25.600,221.963 25.600 C 221.817 25.600,220.992 24.925,220.132 24.100 C 219.272 23.275,218.060 22.240,217.439 21.800 C 216.819 21.360,216.074 20.775,215.784 20.500 C 215.494 20.225,215.146 20.000,215.010 20.000 C 214.875 20.000,214.330 19.595,213.801 19.100 C 212.364 17.756,211.661 17.200,211.399 17.200 C 211.269 17.200,210.714 16.750,210.164 16.200 C 209.614 15.650,208.942 15.200,208.670 15.200 C 208.399 15.200,207.917 14.840,207.600 14.400 C 207.283 13.960,206.870 13.600,206.683 13.600 C 206.496 13.600,206.092 13.375,205.785 13.100 C 204.462 11.913,204.009 11.600,203.617 11.600 C 203.388 11.600,203.200 11.420,203.200 11.200 C 203.200 10.980,202.952 10.800,202.649 10.800 C 202.346 10.800,201.874 10.530,201.600 10.200 C 201.326 9.870,200.804 9.600,200.439 9.600 C 200.075 9.600,199.517 9.240,199.200 8.800 C 198.883 8.360,198.393 8.000,198.112 8.000 C 197.830 8.000,197.600 7.843,197.600 7.650 C 197.600 7.457,197.105 7.200,196.500 7.077 C 195.895 6.955,195.040 6.522,194.600 6.114 C 193.642 5.228,191.124 4.000,190.263 4.000 C 189.924 4.000,189.536 3.820,189.400 3.600 C 189.264 3.380,188.803 3.200,188.376 3.200 C 187.949 3.200,187.600 3.064,187.600 2.898 C 187.600 2.393,185.523 1.655,183.291 1.367 C 182.131 1.217,181.085 0.938,180.967 0.747 C 180.681 0.285,172.910 0.299,172.623 0.763 C 172.500 0.962,171.500 1.249,170.400 1.400 C 169.300 1.551,168.300 1.838,168.177 2.037 C 168.054 2.237,167.513 2.400,166.976 2.400 C 166.439 2.400,166.000 2.580,166.000 2.800 C 166.000 3.020,165.730 3.200,165.400 3.200 C 165.070 3.200,164.800 3.380,164.800 3.600 C 164.800 3.820,164.446 4.000,164.014 4.000 C 162.992 4.000,160.368 5.216,159.600 6.045 C 159.269 6.401,158.414 6.821,157.700 6.978 C 156.985 7.135,156.400 7.429,156.400 7.632 C 156.400 7.834,156.164 8.000,155.875 8.000 C 155.587 8.000,154.997 8.315,154.565 8.700 C 154.132 9.085,153.108 9.743,152.289 10.163 C 151.470 10.583,150.800 11.078,150.800 11.263 C 150.800 11.448,150.459 11.600,150.043 11.600 C 149.626 11.600,149.182 11.870,149.055 12.200 C 148.929 12.530,148.499 12.800,148.101 12.800 C 147.703 12.800,147.117 13.160,146.800 13.600 C 146.483 14.040,145.993 14.400,145.712 14.400 C 145.430 14.400,145.200 14.568,145.200 14.773 C 145.200 14.978,144.795 15.274,144.300 15.430 C 143.805 15.587,143.109 16.049,142.753 16.457 C 142.397 16.866,141.945 17.200,141.749 17.200 C 141.553 17.200,140.907 17.650,140.313 18.200 C 139.720 18.750,138.969 19.200,138.644 19.200 C 138.320 19.200,137.940 19.560,137.800 20.000 C 137.660 20.440,137.211 20.800,136.802 20.800 C 136.393 20.800,135.704 21.250,135.271 21.800 C 134.839 22.350,134.312 22.800,134.101 22.800 C 133.890 22.800,133.231 23.250,132.638 23.800 C 132.044 24.350,131.416 24.800,131.241 24.800 C 131.066 24.800,130.274 25.430,129.481 26.200 C 128.688 26.970,127.861 27.600,127.643 27.600 C 127.424 27.600,127.010 27.918,126.723 28.307 C 126.435 28.696,125.669 29.353,125.021 29.768 C 124.372 30.183,123.419 30.945,122.902 31.461 C 122.386 31.978,121.814 32.400,121.632 32.400 C 121.449 32.400,120.455 33.210,119.422 34.200 C 117.576 35.969,116.400 36.057,116.400 34.429 C 116.400 34.193,116.240 34.000,116.043 34.000 C 115.847 34.000,115.574 33.550,115.436 33.000 C 115.298 32.450,115.008 32.000,114.792 32.000 C 114.577 32.000,114.400 31.640,114.400 31.200 C 114.400 30.760,114.220 30.400,114.000 30.400 C 113.780 30.400,113.600 30.130,113.600 29.800 C 113.600 29.470,113.438 29.200,113.239 29.200 C 113.041 29.200,112.689 28.658,112.458 27.995 C 112.227 27.332,111.759 26.683,111.419 26.552 C 111.079 26.421,110.800 25.974,110.800 25.557 C 110.800 25.141,110.632 24.800,110.427 24.800 C 110.222 24.800,109.926 24.395,109.770 23.900 C 109.613 23.405,109.151 22.709,108.743 22.353 C 108.334 21.997,108.000 21.579,108.000 21.425 C 108.000 21.270,107.775 20.892,107.500 20.585 C 106.423 19.384,106.000 18.824,106.000 18.599 C 106.000 18.469,105.550 17.914,105.000 17.364 C 104.450 16.814,104.000 16.190,104.000 15.979 C 104.000 15.450,91.786 3.200,91.259 3.200 C 91.027 3.200,90.386 2.750,89.836 2.200 C 89.286 1.650,88.558 1.200,88.218 1.200 C 87.878 1.200,87.600 1.020,87.600 0.800 C 87.600 0.580,87.150 0.400,86.600 0.400 C 86.050 0.400,85.600 0.580,85.600 0.800 " stroke="none" fill="#040404" fill-rule="evenodd"></path><path id="path2" d="" stroke="none" fill="#24a0c0" fill-rule="evenodd"></path><path id="path3" d="" stroke="none" fill="#245440" fill-rule="evenodd"></path></g></svg>