<svg id="svg" version="1.1" xmlns="http://www.w3.org/2000/svg" xmlns:xlink="http://www.w3.org/1999/xlink" width="400" height="65.84362139917695" viewBox="0, 0, 400,65.84362139917695"><g id="svgg"><path id="path0" d="M362.500 60.833 L 362.500 65.667 367.333 65.667 L 372.167 65.667 372.167 60.833 L 372.167 56.000 367.333 56.000 L 362.500 56.000 362.500 60.833 M376.333 60.833 L 376.333 65.667 381.167 65.667 L 386.000 65.667 386.000 60.833 L 386.000 56.000 381.167 56.000 L 376.333 56.000 376.333 60.833 M390.278 56.111 C 390.217 56.172,390.167 58.347,390.167 60.944 L 390.167 65.667 395.000 65.667 L 399.833 65.667 399.833 60.833 L 399.833 56.000 395.111 56.000 C 392.514 56.000,390.339 56.050,390.278 56.111 " stroke="none" fill="#449cfc" fill-rule="evenodd"></path><path id="path1" d="M19.042 0.298 C 18.744 0.329,18.500 0.413,18.500 0.484 C 18.500 0.556,18.191 0.707,17.812 0.820 C 17.165 1.014,16.993 1.113,16.423 1.625 C 16.295 1.740,16.136 1.833,16.069 1.833 C 16.003 1.833,15.702 2.021,15.402 2.250 C 15.101 2.479,14.782 2.667,14.692 2.667 C 14.602 2.667,14.503 2.726,14.472 2.799 C 14.442 2.871,14.117 3.152,13.750 3.423 C 13.383 3.693,13.023 4.009,12.950 4.124 C 12.768 4.409,12.333 4.389,12.333 4.095 C 12.333 3.964,12.240 3.758,12.125 3.637 C 12.010 3.516,11.707 3.108,11.451 2.730 C 10.779 1.740,9.941 0.833,9.699 0.833 C 9.584 0.833,9.446 0.721,9.394 0.583 C 9.287 0.306,8.333 0.231,8.333 0.500 C 8.333 0.592,8.253 0.667,8.155 0.667 C 8.057 0.667,7.344 1.117,6.570 1.667 C 5.796 2.217,5.097 2.667,5.016 2.667 C 4.935 2.667,4.826 2.779,4.773 2.917 C 4.720 3.054,4.574 3.167,4.448 3.167 C 4.322 3.167,4.083 3.317,3.917 3.500 C 3.751 3.683,3.522 3.833,3.409 3.833 C 3.295 3.833,3.159 3.946,3.106 4.083 C 3.054 4.221,2.896 4.333,2.755 4.333 C 2.615 4.333,2.500 4.399,2.500 4.480 C 2.500 4.560,2.275 4.719,2.000 4.833 C 1.725 4.947,1.500 5.109,1.500 5.192 C 1.500 5.276,1.369 5.394,1.208 5.455 C 0.261 5.818,0.311 6.395,1.395 7.577 C 1.566 7.764,1.811 8.160,1.938 8.458 C 2.066 8.756,2.239 9.000,2.322 9.000 C 2.405 9.000,2.523 9.225,2.583 9.500 C 2.644 9.775,2.744 10.000,2.806 10.000 C 2.969 10.000,3.650 11.537,3.777 12.192 C 3.837 12.499,3.951 12.793,4.030 12.846 C 4.110 12.898,4.222 13.932,4.280 15.144 C 4.338 16.355,4.449 17.385,4.526 17.433 C 4.603 17.481,4.667 24.565,4.667 33.177 L 4.667 48.833 9.417 48.833 L 14.167 48.833 14.167 30.990 L 14.167 13.147 14.792 12.245 C 15.135 11.750,15.529 11.304,15.667 11.256 C 15.804 11.207,16.142 10.960,16.417 10.707 C 17.305 9.888,18.425 9.603,19.176 10.005 C 19.565 10.213,20.833 11.475,20.833 11.654 C 20.833 11.766,20.992 11.983,21.650 12.770 C 22.130 13.344,22.165 14.619,22.166 31.542 L 22.167 48.833 27.167 48.833 L 32.167 48.833 32.167 30.260 C 32.167 19.951,32.102 11.647,32.022 11.597 C 31.943 11.548,31.838 11.159,31.790 10.733 C 31.742 10.307,31.630 9.912,31.541 9.854 C 31.451 9.797,31.320 9.563,31.250 9.333 C 31.042 8.661,29.320 6.704,28.138 5.798 C 27.865 5.588,27.244 5.023,26.759 4.542 C 26.274 4.060,25.827 3.667,25.766 3.667 C 25.705 3.667,25.451 3.460,25.200 3.208 C 24.950 2.956,24.408 2.525,23.997 2.250 C 23.217 1.728,22.960 1.539,22.615 1.233 C 22.501 1.133,22.110 0.953,21.745 0.834 C 21.381 0.716,21.046 0.565,21.000 0.501 C 20.891 0.347,19.729 0.227,19.042 0.298 M282.500 0.500 C 282.500 0.592,282.413 0.667,282.307 0.667 C 282.201 0.667,281.883 0.842,281.599 1.056 C 280.508 1.881,279.330 2.667,279.186 2.667 C 279.103 2.667,278.992 2.779,278.940 2.917 C 278.887 3.054,278.741 3.167,278.614 3.167 C 278.488 3.167,278.249 3.317,278.083 3.500 C 277.917 3.683,277.689 3.833,277.575 3.833 C 277.462 3.833,277.326 3.946,277.273 4.083 C 277.220 4.221,277.062 4.333,276.922 4.333 C 276.782 4.333,276.667 4.412,276.667 4.509 C 276.667 4.605,276.448 4.760,276.180 4.854 C 275.912 4.947,275.652 5.131,275.602 5.262 C 275.552 5.393,275.423 5.500,275.315 5.500 C 274.766 5.500,274.541 6.299,274.961 6.760 C 275.965 7.862,277.752 11.024,277.944 12.042 C 278.001 12.340,278.117 12.672,278.202 12.781 C 278.287 12.890,278.400 13.961,278.454 15.162 C 278.507 16.363,278.614 17.384,278.692 17.432 C 278.770 17.480,278.833 24.565,278.833 33.177 L 278.833 48.833 283.667 48.833 L 288.500 48.833 288.500 38.000 L 288.500 27.167 292.917 27.167 L 297.333 27.167 297.333 38.000 L 297.333 48.833 302.250 48.833 L 307.167 48.833 307.167 24.917 L 307.167 1.000 302.250 1.000 L 297.333 1.000 297.333 9.833 L 297.333 18.667 292.923 18.667 L 288.512 18.667 288.444 15.042 C 288.378 11.524,288.127 8.772,287.839 8.421 C 287.761 8.327,287.645 7.894,287.580 7.458 C 287.515 7.023,287.408 6.667,287.341 6.667 C 287.274 6.667,287.127 6.254,287.015 5.750 C 286.902 5.246,286.746 4.833,286.668 4.833 C 286.590 4.833,286.477 4.608,286.417 4.333 C 286.356 4.058,286.243 3.833,286.164 3.833 C 286.086 3.833,285.927 3.571,285.811 3.250 C 285.695 2.929,285.540 2.667,285.467 2.667 C 285.393 2.667,285.333 2.586,285.333 2.487 C 285.333 2.285,284.603 1.473,283.658 0.625 C 283.310 0.312,282.500 0.225,282.500 0.500 M88.833 8.000 C 88.833 8.092,88.732 8.167,88.609 8.167 C 88.485 8.167,88.211 8.317,88.000 8.500 C 87.789 8.683,87.569 8.833,87.512 8.833 C 87.454 8.833,87.176 9.040,86.893 9.292 C 86.610 9.544,86.185 9.862,85.949 10.000 C 84.848 10.641,83.011 11.939,82.929 12.133 C 82.878 12.253,83.140 12.665,83.510 13.050 C 84.355 13.929,84.937 14.912,85.088 15.715 C 85.152 16.057,85.271 16.378,85.352 16.428 C 85.437 16.480,85.500 23.462,85.500 32.677 L 85.500 48.833 89.333 48.833 L 93.167 48.833 93.168 38.375 L 93.169 27.917 93.709 27.545 C 94.007 27.340,94.498 26.939,94.801 26.653 C 95.537 25.958,96.541 25.802,97.014 26.310 C 97.197 26.506,97.401 26.667,97.467 26.667 C 97.534 26.667,97.826 27.030,98.117 27.474 L 98.645 28.281 98.698 35.948 C 98.735 41.356,98.806 43.685,98.939 43.850 C 99.044 43.978,99.182 44.402,99.246 44.792 C 99.310 45.181,99.419 45.500,99.488 45.500 C 99.557 45.500,99.704 45.800,99.814 46.167 C 99.923 46.533,100.080 46.833,100.162 46.833 C 100.244 46.833,100.357 46.980,100.414 47.159 C 100.568 47.644,102.398 49.500,102.722 49.500 C 102.877 49.500,103.378 49.237,103.835 48.917 C 104.292 48.596,105.042 48.071,105.500 47.750 C 105.958 47.429,106.708 46.904,107.165 46.583 C 107.622 46.262,108.064 46.000,108.147 46.000 C 108.230 46.000,108.341 45.887,108.394 45.750 C 108.446 45.612,108.604 45.500,108.745 45.500 C 108.889 45.500,109.000 45.355,109.000 45.167 C 109.000 44.983,108.925 44.833,108.833 44.833 C 108.433 44.833,106.939 42.746,106.738 41.904 C 106.673 41.636,106.537 41.311,106.435 41.183 C 106.308 41.023,106.224 38.579,106.166 33.433 L 106.083 25.917 105.528 24.917 C 105.223 24.367,104.867 23.833,104.737 23.732 C 104.607 23.630,104.500 23.480,104.499 23.398 C 104.499 23.154,101.780 20.634,100.834 20.000 C 100.629 19.862,100.295 19.623,100.093 19.469 C 99.890 19.314,99.523 19.137,99.279 19.076 C 99.034 19.014,98.833 18.897,98.833 18.815 C 98.833 18.734,98.383 18.667,97.833 18.667 C 97.283 18.667,96.833 18.734,96.833 18.815 C 96.833 18.897,96.632 19.014,96.385 19.076 C 95.899 19.198,95.122 19.700,94.182 20.500 C 94.021 20.637,93.726 20.844,93.528 20.960 L 93.167 21.169 93.167 18.471 C 93.167 15.782,92.903 12.833,92.663 12.833 C 92.594 12.833,92.488 12.571,92.428 12.250 C 92.367 11.929,92.255 11.667,92.177 11.667 C 92.100 11.667,91.986 11.468,91.925 11.224 C 91.611 9.972,88.833 7.075,88.833 8.000 M170.167 8.000 C 170.167 8.092,170.091 8.167,169.998 8.167 C 169.815 8.167,168.188 9.255,167.914 9.561 C 167.821 9.665,167.545 9.862,167.301 10.000 C 164.470 11.597,164.007 12.185,164.886 13.064 C 165.507 13.685,166.333 15.013,166.333 15.391 C 166.333 15.527,166.427 15.670,166.542 15.708 C 166.706 15.763,166.760 19.264,166.796 32.306 L 166.841 48.833 170.754 48.833 L 174.667 48.833 174.667 38.353 L 174.667 27.873 175.413 27.262 C 175.823 26.926,176.277 26.532,176.422 26.387 C 177.220 25.590,178.397 26.030,179.667 27.599 C 179.878 27.860,179.930 29.105,180.000 35.662 C 180.057 40.991,180.142 43.521,180.272 43.750 C 180.376 43.933,180.514 44.402,180.579 44.792 C 180.643 45.181,180.758 45.500,180.835 45.500 C 180.911 45.500,181.023 45.725,181.083 46.000 C 181.144 46.275,181.257 46.500,181.335 46.500 C 181.414 46.500,181.529 46.661,181.591 46.858 C 181.788 47.480,183.710 49.500,184.104 49.500 C 184.249 49.500,185.113 48.975,186.023 48.333 C 186.933 47.692,187.751 47.167,187.839 47.167 C 187.928 47.167,188.000 47.105,188.000 47.030 C 188.000 46.880,189.280 46.000,189.497 46.000 C 189.571 46.000,189.674 45.887,189.727 45.750 C 189.780 45.612,189.938 45.500,190.078 45.500 C 190.383 45.500,190.429 44.835,190.125 44.829 C 190.010 44.826,189.729 44.559,189.500 44.235 C 189.271 43.912,188.993 43.547,188.882 43.426 C 188.377 42.871,187.955 41.748,187.874 40.745 C 187.827 40.152,187.727 39.667,187.652 39.667 C 187.578 39.667,187.494 36.514,187.467 32.660 C 187.430 27.535,187.364 25.622,187.222 25.534 C 187.114 25.468,186.978 25.219,186.918 24.981 C 186.858 24.743,186.590 24.307,186.321 24.014 C 186.053 23.720,185.833 23.426,185.833 23.360 C 185.833 23.163,183.969 21.382,182.927 20.583 C 182.687 20.400,182.398 20.175,182.283 20.083 C 181.613 19.548,180.980 19.168,180.600 19.073 C 180.362 19.013,180.167 18.897,180.167 18.815 C 180.167 18.618,178.380 18.623,178.258 18.821 C 178.206 18.905,177.952 19.021,177.695 19.077 C 177.437 19.134,176.983 19.402,176.686 19.673 C 176.389 19.945,176.080 20.167,175.998 20.167 C 175.917 20.167,175.648 20.354,175.401 20.583 C 174.692 21.241,174.667 21.159,174.667 18.177 C 174.667 16.624,174.602 15.313,174.522 15.264 C 174.442 15.214,174.325 14.647,174.262 14.004 C 174.198 13.360,174.090 12.833,174.021 12.833 C 173.953 12.833,173.800 12.458,173.683 12.000 C 173.565 11.542,173.401 11.167,173.318 11.167 C 173.235 11.167,173.167 11.068,173.167 10.947 C 173.167 10.668,172.109 9.266,171.286 8.455 C 170.681 7.858,170.167 7.649,170.167 8.000 M135.626 8.180 C 135.210 8.293,134.176 9.002,133.472 9.657 C 131.329 11.652,130.940 12.265,131.339 13.011 C 131.593 13.486,133.276 15.167,133.497 15.167 C 133.592 15.167,133.834 15.356,134.035 15.588 C 134.715 16.370,136.500 17.164,136.500 16.685 C 136.500 16.603,136.706 16.485,136.957 16.421 C 137.208 16.358,137.527 16.201,137.665 16.071 C 137.804 15.941,138.324 15.479,138.821 15.043 C 141.510 12.685,141.578 12.378,139.792 10.603 C 137.612 8.437,136.680 7.895,135.626 8.180 M197.274 9.083 C 197.136 9.221,196.941 9.333,196.840 9.333 C 196.739 9.333,196.616 9.439,196.566 9.568 C 196.517 9.697,196.256 9.894,195.988 10.005 C 195.720 10.116,195.500 10.273,195.500 10.354 C 195.500 10.434,195.391 10.500,195.258 10.500 C 195.125 10.500,194.957 10.594,194.883 10.709 C 194.810 10.823,194.554 11.018,194.314 11.141 C 194.075 11.265,193.697 11.534,193.474 11.741 C 193.252 11.947,192.998 12.146,192.910 12.183 C 192.463 12.370,191.504 13.106,191.502 13.262 C 191.500 13.408,192.494 14.701,192.839 15.000 C 193.139 15.261,193.702 16.666,193.784 17.359 C 193.837 17.803,193.944 18.167,194.023 18.167 C 194.102 18.167,194.167 18.650,194.167 19.240 L 194.167 20.313 193.415 20.426 C 193.001 20.488,192.622 20.605,192.571 20.686 C 192.521 20.767,192.260 20.833,191.990 20.833 L 191.500 20.833 191.500 23.167 L 191.500 25.500 192.818 25.500 L 194.136 25.500 194.193 33.423 C 194.230 38.537,194.310 41.388,194.419 41.464 C 194.513 41.530,194.686 41.958,194.804 42.417 C 194.922 42.875,195.090 43.275,195.176 43.306 C 195.263 43.336,195.333 43.445,195.333 43.547 C 195.333 45.257,202.266 50.571,202.773 49.250 C 202.826 49.112,202.976 49.000,203.106 49.000 C 203.237 49.000,203.387 48.887,203.440 48.750 C 203.492 48.612,203.642 48.500,203.773 48.500 C 203.904 48.500,204.051 48.394,204.101 48.265 C 204.150 48.136,204.354 47.989,204.554 47.938 C 204.753 47.887,205.153 47.629,205.442 47.363 C 205.732 47.098,206.085 46.836,206.229 46.781 C 206.804 46.560,208.167 45.411,208.167 45.146 C 208.167 44.902,206.995 44.167,206.607 44.167 C 206.540 44.167,206.395 44.090,206.285 43.997 C 205.965 43.727,205.388 43.283,204.785 42.844 C 204.479 42.621,204.046 42.185,203.823 41.876 C 203.599 41.566,203.308 41.195,203.174 41.051 C 202.801 40.647,202.178 39.294,202.172 38.875 C 202.169 38.669,202.092 38.500,202.000 38.500 C 201.892 38.500,201.833 36.223,201.833 32.004 L 201.833 25.508 204.875 25.462 L 207.917 25.417 207.917 22.417 L 207.917 19.417 204.901 19.371 L 201.884 19.326 201.780 17.144 C 201.723 15.944,201.611 14.877,201.532 14.773 C 201.454 14.668,201.290 14.152,201.168 13.625 C 201.046 13.098,200.890 12.667,200.820 12.667 C 200.750 12.667,200.644 12.442,200.583 12.167 C 200.523 11.892,200.410 11.667,200.331 11.667 C 200.253 11.667,200.144 11.525,200.089 11.352 C 200.034 11.179,199.823 10.853,199.620 10.627 C 199.416 10.402,199.090 10.037,198.894 9.817 C 198.067 8.888,197.656 8.701,197.274 9.083 M365.484 9.164 C 364.899 9.645,364.823 9.701,364.000 10.250 C 363.587 10.524,363.212 10.787,363.167 10.833 C 363.121 10.880,362.746 11.142,362.333 11.417 C 361.921 11.692,361.508 11.974,361.417 12.045 C 361.325 12.115,360.931 12.397,360.542 12.671 C 359.668 13.285,359.668 13.269,360.584 14.266 C 360.997 14.716,361.380 15.252,361.436 15.458 C 361.491 15.665,361.597 15.833,361.671 15.833 C 361.746 15.833,361.860 16.077,361.924 16.375 C 361.989 16.673,362.109 16.959,362.190 17.011 C 362.272 17.063,362.385 17.824,362.443 18.701 L 362.548 20.296 361.816 20.417 C 361.413 20.483,361.008 20.597,360.917 20.670 C 360.825 20.742,360.563 20.827,360.333 20.859 L 359.917 20.917 359.917 23.167 L 359.917 25.417 361.193 25.465 L 362.470 25.513 362.527 33.430 C 362.568 39.194,362.636 41.378,362.776 41.465 C 362.883 41.530,363.022 41.865,363.087 42.209 C 363.151 42.552,363.262 42.833,363.334 42.833 C 363.405 42.833,363.514 43.035,363.576 43.282 C 363.675 43.674,363.968 44.170,364.579 44.976 C 364.962 45.482,367.346 47.833,367.476 47.833 C 367.553 47.833,367.796 47.982,368.016 48.164 C 369.699 49.551,370.625 49.775,371.473 49.000 C 371.774 48.725,372.086 48.500,372.165 48.500 C 372.245 48.500,372.409 48.406,372.530 48.292 C 372.651 48.177,373.087 47.858,373.500 47.583 C 373.912 47.308,374.325 47.025,374.417 46.953 C 375.239 46.312,376.420 45.500,376.530 45.500 C 376.605 45.500,376.667 45.350,376.667 45.167 C 376.667 44.981,376.556 44.833,376.417 44.833 C 376.279 44.833,376.167 44.768,376.167 44.688 C 376.167 44.609,375.834 44.450,375.427 44.336 C 375.021 44.222,374.648 44.025,374.599 43.898 C 374.550 43.771,374.396 43.667,374.255 43.667 C 374.115 43.667,374.000 43.589,374.000 43.495 C 374.000 43.400,373.869 43.275,373.708 43.217 C 373.548 43.159,373.024 42.692,372.544 42.180 C 371.260 40.813,371.185 40.714,371.070 40.254 C 371.011 40.023,370.903 39.833,370.829 39.833 C 370.460 39.833,370.333 37.791,370.333 31.825 L 370.333 25.500 373.333 25.500 L 376.333 25.500 376.333 22.417 L 376.333 19.333 373.346 19.333 L 370.358 19.333 370.278 17.958 C 370.168 16.054,369.879 14.292,369.584 13.726 C 369.447 13.464,369.335 13.119,369.334 12.958 C 369.334 12.798,369.266 12.667,369.185 12.667 C 369.103 12.667,368.987 12.472,368.927 12.233 C 368.822 11.815,368.350 11.066,367.833 10.498 C 367.696 10.347,367.423 10.042,367.227 9.820 C 366.350 8.827,366.036 8.708,365.484 9.164 M44.333 18.820 C 44.333 18.904,44.103 19.024,43.822 19.086 C 43.541 19.148,43.270 19.304,43.221 19.432 C 43.171 19.561,43.058 19.667,42.968 19.667 C 42.381 19.667,38.295 24.002,37.626 25.333 C 37.419 25.746,37.196 26.124,37.131 26.173 C 37.065 26.222,36.961 26.710,36.900 27.256 C 36.838 27.803,36.710 28.349,36.615 28.469 C 36.377 28.770,36.377 39.397,36.615 39.697 C 36.710 39.818,36.838 40.364,36.900 40.910 C 36.961 41.457,37.065 41.944,37.131 41.994 C 37.196 42.043,37.420 42.422,37.627 42.835 C 37.834 43.249,38.247 43.867,38.544 44.209 C 38.841 44.552,39.421 45.230,39.833 45.717 C 40.246 46.205,40.942 46.899,41.380 47.260 C 41.818 47.621,42.411 48.122,42.698 48.372 C 44.017 49.522,45.419 49.798,46.662 49.150 C 47.031 48.957,47.333 48.732,47.333 48.650 C 47.333 48.567,47.434 48.500,47.558 48.500 C 47.681 48.500,47.963 48.353,48.183 48.174 C 48.403 47.994,48.844 47.638,49.164 47.382 C 49.483 47.126,50.076 46.598,50.483 46.208 C 51.353 45.374,51.442 45.356,51.712 45.956 C 51.928 46.437,52.039 46.587,52.836 47.464 C 53.110 47.765,53.333 48.078,53.333 48.159 C 53.333 48.744,54.927 49.620,55.319 49.252 C 56.070 48.545,56.867 47.856,57.264 47.570 C 57.509 47.394,57.994 46.969,58.342 46.625 C 58.689 46.281,59.027 46.000,59.093 46.000 C 59.352 46.000,60.015 45.113,59.927 44.883 C 59.875 44.749,59.833 44.608,59.833 44.570 C 59.833 44.531,59.735 44.500,59.615 44.500 C 59.357 44.500,58.881 44.074,58.417 43.427 C 58.233 43.172,57.971 42.846,57.833 42.702 C 57.617 42.476,57.577 40.887,57.537 30.887 L 57.491 19.333 54.579 19.333 L 51.667 19.333 51.667 19.833 C 51.667 20.108,51.602 20.333,51.523 20.333 C 51.444 20.333,51.334 20.719,51.278 21.189 C 51.156 22.226,51.055 22.351,50.694 21.917 C 50.354 21.508,48.745 20.167,48.595 20.167 C 48.492 20.167,48.280 20.009,47.771 19.556 C 47.651 19.450,47.241 19.269,46.860 19.155 C 46.479 19.041,46.167 18.884,46.167 18.807 C 46.167 18.730,45.754 18.667,45.250 18.667 C 44.746 18.667,44.333 18.736,44.333 18.820 M71.167 18.833 C 71.167 18.925,71.074 19.000,70.961 19.000 C 70.653 19.000,69.000 19.866,69.000 20.027 C 69.000 20.104,68.917 20.167,68.816 20.167 C 68.714 20.167,68.423 20.335,68.168 20.542 C 67.913 20.748,67.420 21.142,67.071 21.417 C 64.298 23.607,62.741 25.687,62.565 27.438 C 62.502 28.068,62.374 28.633,62.281 28.694 C 62.043 28.849,62.044 39.233,62.283 39.530 C 62.380 39.651,62.510 40.241,62.573 40.842 C 62.635 41.442,62.791 42.117,62.920 42.342 C 63.048 42.566,63.206 42.862,63.269 43.000 C 63.398 43.279,66.589 46.423,67.196 46.868 C 67.409 47.024,67.819 47.343,68.107 47.576 C 68.396 47.809,68.682 48.000,68.744 48.000 C 68.806 48.000,68.962 48.094,69.089 48.208 C 69.621 48.685,69.795 48.799,70.179 48.919 C 70.402 48.988,70.731 49.147,70.912 49.272 C 71.652 49.784,74.852 49.332,75.335 48.647 C 75.382 48.581,75.626 48.475,75.877 48.412 C 76.128 48.349,76.333 48.239,76.333 48.169 C 76.333 48.098,76.569 47.943,76.858 47.823 C 77.381 47.607,77.601 47.435,78.978 46.169 C 79.379 45.801,79.773 45.500,79.853 45.500 C 79.934 45.500,80.003 45.406,80.007 45.292 C 80.011 45.177,80.236 44.899,80.507 44.674 C 80.778 44.450,81.000 44.166,81.000 44.044 C 81.000 43.922,81.106 43.782,81.235 43.733 C 81.364 43.683,81.516 43.460,81.571 43.238 C 81.627 43.015,81.747 42.833,81.837 42.833 C 82.172 42.833,81.985 42.319,81.583 42.136 C 81.354 42.032,81.167 41.888,81.167 41.817 C 81.167 41.746,80.904 41.593,80.583 41.477 C 80.262 41.361,80.000 41.217,80.000 41.156 C 80.000 41.095,79.681 40.829,79.292 40.564 C 78.902 40.300,78.484 39.990,78.363 39.875 C 78.242 39.760,78.078 39.667,77.998 39.667 C 77.919 39.667,77.606 39.439,77.302 39.161 C 76.438 38.369,75.667 38.298,75.667 39.010 C 75.667 39.188,75.598 39.333,75.513 39.333 C 75.429 39.333,75.312 39.552,75.253 39.819 C 75.194 40.087,75.038 40.347,74.906 40.398 C 74.775 40.448,74.667 40.596,74.667 40.726 C 74.667 41.048,73.229 42.485,72.709 42.682 C 72.104 42.912,71.469 42.575,70.896 41.722 C 70.633 41.329,70.366 41.006,70.305 41.004 C 70.243 41.002,70.140 40.756,70.076 40.458 C 70.011 40.160,69.874 39.863,69.771 39.798 C 69.638 39.714,69.583 38.045,69.583 34.083 C 69.583 30.122,69.638 28.453,69.771 28.369 C 69.874 28.304,70.011 28.006,70.076 27.708 C 70.140 27.410,70.250 27.167,70.318 27.167 C 70.387 27.167,70.550 26.963,70.680 26.713 C 71.391 25.351,72.378 25.143,73.338 26.151 C 73.702 26.534,74.000 26.922,74.000 27.012 C 74.000 27.103,74.106 27.218,74.235 27.267 C 74.364 27.317,74.560 27.577,74.672 27.845 C 74.783 28.114,74.940 28.333,75.020 28.333 C 75.101 28.333,75.167 28.448,75.167 28.589 C 75.167 28.729,75.272 28.884,75.400 28.933 C 75.529 28.983,75.672 29.168,75.718 29.345 C 75.863 29.900,76.941 29.515,77.970 28.542 C 78.091 28.427,78.255 28.333,78.333 28.333 C 78.412 28.333,78.577 28.240,78.701 28.125 C 79.061 27.791,79.892 27.237,80.208 27.119 C 80.369 27.059,80.500 26.933,80.500 26.839 C 80.500 26.744,80.615 26.667,80.755 26.667 C 80.896 26.667,81.051 26.561,81.101 26.432 C 81.150 26.302,81.373 26.151,81.595 26.095 C 82.151 25.956,82.115 25.806,81.214 24.530 C 80.148 23.022,77.878 20.833,77.380 20.833 C 77.262 20.833,77.167 20.759,77.167 20.669 C 77.167 20.578,76.923 20.387,76.625 20.243 C 75.617 19.756,75.333 19.588,75.333 19.476 C 75.333 19.414,74.958 19.268,74.500 19.151 C 74.042 19.033,73.667 18.876,73.667 18.802 C 73.667 18.727,73.104 18.667,72.417 18.667 C 71.694 18.667,71.167 18.737,71.167 18.833 M115.806 18.792 C 115.720 18.984,114.543 19.833,114.362 19.833 C 114.274 19.833,114.159 19.946,114.106 20.083 C 114.054 20.221,113.930 20.333,113.832 20.333 C 113.608 20.333,112.629 21.012,112.450 21.292 C 112.377 21.406,112.208 21.500,112.075 21.500 C 111.942 21.500,111.833 21.579,111.833 21.675 C 111.833 21.772,111.608 21.929,111.333 22.025 C 111.058 22.121,110.833 22.262,110.833 22.338 C 110.833 22.415,110.683 22.525,110.500 22.583 C 109.989 22.746,110.100 23.200,110.831 23.938 C 111.560 24.674,112.495 26.368,112.498 26.958 C 112.499 27.165,112.575 27.333,112.667 27.333 C 112.776 27.333,112.833 31.028,112.833 38.083 L 112.833 48.833 116.667 48.833 L 120.500 48.833 120.511 38.375 L 120.523 27.917 121.766 26.941 C 123.405 25.656,124.064 25.866,124.437 27.792 C 124.495 28.090,124.607 28.333,124.688 28.333 C 124.768 28.333,124.833 28.638,124.833 29.011 C 124.833 29.767,125.199 29.813,125.927 29.148 C 126.117 28.975,126.352 28.833,126.451 28.833 C 126.550 28.833,126.674 28.721,126.727 28.583 C 126.780 28.446,126.934 28.333,127.070 28.333 C 127.206 28.333,127.377 28.239,127.450 28.125 C 127.523 28.010,127.921 27.691,128.333 27.416 C 129.231 26.818,129.259 26.797,130.000 26.166 C 130.321 25.893,130.715 25.627,130.875 25.574 C 131.167 25.477,131.295 24.833,131.022 24.833 C 130.942 24.833,130.837 24.535,130.788 24.171 C 130.740 23.807,130.580 23.389,130.433 23.243 C 130.287 23.096,130.167 22.904,130.167 22.815 C 130.167 22.409,128.173 20.167,127.811 20.167 C 127.712 20.167,127.487 19.983,127.311 19.759 C 127.134 19.535,126.730 19.257,126.412 19.142 C 126.094 19.027,125.833 18.873,125.833 18.800 C 125.833 18.727,125.421 18.667,124.917 18.667 C 124.412 18.667,124.000 18.727,124.000 18.800 C 124.000 18.873,123.724 19.033,123.386 19.155 C 123.049 19.277,122.671 19.461,122.547 19.563 C 122.423 19.666,122.231 19.825,122.119 19.917 C 122.008 20.008,121.630 20.298,121.279 20.560 C 120.929 20.821,120.372 21.305,120.043 21.635 C 119.452 22.226,119.441 22.229,119.280 21.867 C 119.189 21.665,119.052 21.500,118.975 21.500 C 118.897 21.500,118.833 21.385,118.833 21.245 C 118.833 21.104,118.721 20.946,118.583 20.894 C 118.446 20.841,118.333 20.709,118.333 20.600 C 118.333 19.930,116.031 18.284,115.806 18.792 M152.833 18.812 C 152.833 18.891,152.496 19.051,152.083 19.167 C 151.671 19.282,151.333 19.442,151.333 19.522 C 151.333 19.601,151.218 19.667,151.078 19.667 C 150.938 19.667,150.780 19.779,150.727 19.917 C 150.674 20.054,150.541 20.167,150.430 20.167 C 150.320 20.167,150.069 20.317,149.872 20.500 C 149.675 20.683,149.440 20.833,149.349 20.833 C 149.258 20.833,149.123 20.931,149.050 21.051 C 148.977 21.170,148.617 21.489,148.250 21.758 C 147.883 22.028,147.525 22.339,147.455 22.449 C 147.384 22.560,147.220 22.748,147.091 22.867 C 145.795 24.061,145.000 24.911,145.000 25.102 C 145.000 25.229,144.932 25.333,144.850 25.333 C 144.664 25.333,144.333 26.248,144.333 26.761 C 144.333 26.969,144.257 27.164,144.163 27.196 C 143.567 27.394,143.538 40.599,144.133 40.984 C 144.218 41.038,144.340 41.444,144.405 41.885 C 144.472 42.336,144.627 42.726,144.762 42.778 C 144.893 42.828,145.000 42.965,145.000 43.083 C 145.000 43.331,147.410 45.792,148.308 46.462 C 148.643 46.711,148.977 47.009,149.050 47.124 C 149.123 47.239,149.258 47.333,149.349 47.333 C 149.440 47.333,149.675 47.483,149.872 47.667 C 150.069 47.850,150.320 48.000,150.430 48.000 C 150.541 48.000,150.674 48.112,150.727 48.250 C 150.780 48.387,150.938 48.500,151.078 48.500 C 151.218 48.500,151.333 48.567,151.333 48.649 C 151.333 48.730,151.539 48.849,151.790 48.912 C 152.041 48.975,152.300 49.114,152.366 49.220 C 152.600 49.598,155.025 49.573,155.881 49.183 C 156.303 48.991,156.727 48.833,156.824 48.833 C 156.921 48.833,157.000 48.758,157.000 48.667 C 157.000 48.575,157.107 48.500,157.238 48.500 C 157.369 48.500,157.575 48.403,157.696 48.285 C 157.818 48.166,158.160 47.970,158.458 47.848 C 158.756 47.726,159.001 47.579,159.001 47.521 C 159.002 47.464,159.282 47.229,159.624 47.000 C 160.461 46.439,162.523 44.344,162.833 43.738 C 162.971 43.469,163.177 43.151,163.292 43.030 C 163.642 42.659,163.531 42.412,162.764 41.862 C 162.360 41.571,161.989 41.333,161.940 41.333 C 161.891 41.333,161.666 41.162,161.440 40.952 C 161.214 40.743,160.816 40.462,160.556 40.328 C 160.296 40.194,160.023 39.990,159.950 39.875 C 159.877 39.761,159.714 39.667,159.589 39.667 C 159.464 39.667,159.336 39.610,159.306 39.542 C 158.812 38.430,157.343 38.321,157.079 39.376 C 157.016 39.628,156.915 39.833,156.856 39.833 C 156.797 39.833,156.642 40.077,156.513 40.375 C 155.665 42.330,153.701 43.263,152.833 42.122 C 152.696 41.942,152.471 41.670,152.333 41.519 C 151.326 40.412,151.169 39.413,151.169 34.083 C 151.169 30.061,151.348 27.810,151.676 27.694 C 151.763 27.664,151.833 27.573,151.833 27.494 C 151.833 27.318,152.527 26.279,152.851 25.968 C 153.779 25.080,154.523 25.374,155.690 27.087 C 155.906 27.404,156.140 27.665,156.208 27.666 C 156.277 27.666,156.333 27.753,156.333 27.859 C 156.333 27.965,156.521 28.298,156.750 28.598 C 156.979 28.899,157.167 29.223,157.167 29.319 C 157.167 29.909,158.025 29.665,159.408 28.682 C 160.194 28.124,160.905 27.667,160.988 27.667 C 161.071 27.667,161.164 27.610,161.194 27.542 C 161.225 27.473,161.587 27.192,162.000 26.917 C 162.412 26.642,162.849 26.323,162.970 26.208 C 163.091 26.094,163.268 26.000,163.363 26.000 C 163.466 26.000,163.492 25.825,163.428 25.569 C 163.321 25.144,163.199 24.954,162.625 24.321 C 162.465 24.145,162.332 23.944,162.331 23.875 C 162.326 23.675,160.968 22.295,160.246 21.756 C 159.881 21.484,159.499 21.184,159.395 21.089 C 159.292 20.994,159.067 20.824,158.895 20.711 C 158.724 20.598,158.321 20.333,158.000 20.121 C 157.191 19.586,155.949 19.000,155.624 19.000 C 155.475 19.000,155.307 18.925,155.250 18.833 C 155.124 18.629,152.833 18.609,152.833 18.812 M220.167 18.827 C 220.167 18.915,219.867 19.068,219.500 19.167 C 219.133 19.265,218.833 19.418,218.833 19.506 C 218.833 19.595,218.761 19.667,218.672 19.667 C 218.433 19.667,216.500 21.022,216.500 21.190 C 216.500 21.269,216.404 21.333,216.287 21.333 C 216.170 21.333,215.952 21.465,215.803 21.625 C 215.352 22.112,214.709 22.667,214.598 22.667 C 214.427 22.667,212.667 24.478,212.667 24.655 C 212.667 24.744,212.569 24.877,212.451 24.950 C 212.038 25.205,211.511 26.338,211.400 27.208 C 211.339 27.689,211.211 28.182,211.116 28.302 C 210.879 28.600,210.878 39.565,211.115 39.865 C 211.210 39.985,211.330 40.464,211.383 40.930 C 211.477 41.767,212.033 42.959,212.451 43.217 C 212.569 43.290,212.667 43.425,212.667 43.518 C 212.667 43.775,215.752 46.666,216.181 46.810 C 216.279 46.843,216.580 47.085,216.850 47.349 C 217.119 47.613,217.521 47.874,217.741 47.929 C 217.962 47.985,218.183 48.136,218.233 48.265 C 218.282 48.394,218.438 48.500,218.578 48.500 C 218.718 48.500,218.833 48.567,218.833 48.649 C 218.833 48.730,219.039 48.849,219.290 48.912 C 219.541 48.975,219.800 49.114,219.866 49.220 C 220.073 49.554,222.530 49.577,223.273 49.252 C 224.745 48.607,225.333 48.303,225.333 48.188 C 225.333 48.122,225.596 47.972,225.917 47.856 C 226.237 47.740,226.500 47.580,226.500 47.500 C 226.500 47.421,226.652 47.307,226.839 47.248 C 227.025 47.189,227.356 46.978,227.574 46.779 C 227.793 46.580,228.352 46.079,228.817 45.667 C 229.283 45.254,229.664 44.821,229.665 44.703 C 229.666 44.586,229.776 44.447,229.910 44.396 C 230.044 44.345,230.199 44.160,230.255 43.986 C 230.310 43.811,230.453 43.571,230.572 43.452 C 231.208 42.815,230.893 42.104,229.695 41.474 C 229.460 41.351,229.102 41.097,228.898 40.911 C 228.695 40.724,228.316 40.462,228.056 40.328 C 227.796 40.194,227.523 39.990,227.450 39.875 C 227.377 39.761,227.214 39.667,227.089 39.667 C 226.964 39.667,226.836 39.610,226.806 39.542 C 226.702 39.308,225.524 38.500,225.287 38.500 C 225.158 38.500,224.909 38.781,224.735 39.125 C 224.560 39.469,224.379 39.787,224.333 39.833 C 224.287 39.879,224.137 40.142,224.000 40.417 C 223.271 41.876,221.972 42.920,221.143 42.713 C 220.770 42.620,219.501 41.453,219.499 41.201 C 219.498 41.136,219.380 40.858,219.237 40.583 C 219.093 40.308,218.933 39.727,218.881 39.292 C 218.829 38.856,218.722 38.500,218.643 38.500 C 218.565 38.500,218.500 37.975,218.500 37.333 L 218.500 36.167 225.020 36.167 L 231.539 36.167 231.474 31.754 C 231.426 28.571,231.351 27.285,231.204 27.137 C 231.092 27.025,231.000 26.788,231.000 26.611 C 231.000 26.029,230.107 24.769,228.867 23.601 C 228.564 23.316,227.945 22.727,227.490 22.292 C 227.035 21.856,226.613 21.500,226.553 21.500 C 226.494 21.500,226.326 21.388,226.181 21.251 C 225.604 20.706,224.859 20.167,224.684 20.167 C 224.583 20.167,224.500 20.104,224.500 20.027 C 224.500 19.866,222.847 19.000,222.539 19.000 C 222.426 19.000,222.333 18.925,222.333 18.833 C 222.333 18.739,221.861 18.667,221.250 18.667 C 220.654 18.667,220.167 18.739,220.167 18.827 M240.000 18.833 C 240.000 18.925,239.915 19.000,239.811 19.000 C 239.706 19.000,238.623 19.712,237.404 20.583 C 236.184 21.454,235.107 22.167,235.010 22.167 C 234.913 22.167,234.833 22.237,234.833 22.322 C 234.833 22.408,234.683 22.525,234.500 22.583 C 233.976 22.750,234.106 23.301,234.833 24.000 C 235.200 24.352,235.500 24.691,235.500 24.752 C 235.500 24.814,235.650 25.055,235.833 25.288 C 236.017 25.521,236.167 25.883,236.167 26.092 C 236.167 26.301,236.260 26.503,236.375 26.542 C 236.538 26.596,236.594 29.015,236.631 37.722 L 236.678 48.833 240.589 48.833 L 244.500 48.833 244.500 38.357 L 244.500 27.881 245.680 26.940 C 247.160 25.761,247.621 25.714,248.583 26.645 C 249.848 27.868,249.745 27.139,249.797 35.287 C 249.822 39.346,249.906 42.667,249.983 42.667 C 250.061 42.667,250.176 43.133,250.241 43.703 C 250.305 44.273,250.503 45.056,250.679 45.444 C 250.856 45.831,251.000 46.227,251.000 46.324 C 251.000 46.421,251.070 46.500,251.155 46.500 C 251.241 46.500,251.362 46.661,251.424 46.858 C 251.630 47.506,253.547 49.500,253.965 49.500 C 254.125 49.500,254.818 49.089,255.503 48.587 C 256.189 48.084,256.836 47.672,256.941 47.670 C 257.045 47.668,257.174 47.554,257.227 47.417 C 257.280 47.279,257.431 47.167,257.564 47.167 C 257.697 47.167,257.831 47.110,257.861 47.042 C 257.946 46.850,259.124 46.000,259.304 46.000 C 259.392 46.000,259.508 45.887,259.560 45.750 C 259.613 45.612,259.771 45.500,259.911 45.500 C 260.216 45.500,260.262 44.835,259.958 44.829 C 259.844 44.826,259.563 44.559,259.333 44.235 C 259.104 43.912,258.839 43.557,258.743 43.448 C 258.274 42.911,257.799 41.648,257.715 40.708 C 257.663 40.135,257.560 39.667,257.486 39.667 C 257.411 39.667,257.328 36.514,257.300 32.660 C 257.263 27.535,257.198 25.622,257.055 25.534 C 256.948 25.468,256.811 25.219,256.751 24.981 C 256.691 24.743,256.423 24.307,256.155 24.014 C 255.886 23.720,255.666 23.428,255.665 23.365 C 255.663 23.183,254.574 22.082,253.708 21.386 C 253.273 21.036,252.819 20.619,252.699 20.458 C 252.579 20.298,252.379 20.167,252.254 20.167 C 252.130 20.167,252.003 20.110,251.972 20.042 C 251.856 19.780,250.815 19.155,250.335 19.059 C 250.059 19.003,249.833 18.893,249.833 18.813 C 249.833 18.732,249.421 18.667,248.917 18.667 C 248.412 18.667,248.000 18.730,248.000 18.807 C 248.000 18.884,247.709 19.034,247.353 19.141 C 246.997 19.248,246.613 19.447,246.499 19.584 C 246.386 19.721,246.234 19.833,246.163 19.833 C 246.021 19.833,245.361 20.375,244.185 21.457 L 243.417 22.164 243.125 21.814 C 242.965 21.621,242.833 21.367,242.833 21.249 C 242.833 21.132,242.721 20.992,242.583 20.940 C 242.446 20.887,242.333 20.765,242.333 20.668 C 242.333 20.395,240.538 18.667,240.254 18.667 C 240.114 18.667,240.000 18.742,240.000 18.833 M321.167 18.814 C 321.167 18.894,320.829 19.045,320.417 19.149 C 320.004 19.253,319.667 19.412,319.667 19.502 C 319.667 19.593,319.588 19.667,319.493 19.667 C 319.293 19.667,317.445 20.994,317.361 21.198 C 317.331 21.272,317.225 21.333,317.127 21.333 C 317.028 21.333,316.658 21.615,316.304 21.958 C 315.950 22.302,315.297 22.883,314.852 23.250 C 314.407 23.617,313.927 24.104,313.785 24.333 C 313.642 24.563,313.388 24.900,313.220 25.083 C 312.316 26.068,312.000 27.476,312.000 30.512 C 312.000 31.504,311.933 32.167,311.833 32.167 C 311.732 32.167,311.667 32.917,311.667 34.083 C 311.667 35.250,311.732 36.000,311.833 36.000 C 311.933 36.000,312.002 36.684,312.005 37.708 C 312.014 40.563,312.345 42.260,313.005 42.833 C 313.058 42.879,313.322 43.215,313.592 43.579 C 314.133 44.308,315.508 45.659,315.713 45.664 C 315.785 45.665,316.074 45.929,316.356 46.250 C 316.637 46.571,316.939 46.833,317.025 46.833 C 317.112 46.833,317.348 47.003,317.550 47.211 C 317.751 47.418,318.142 47.699,318.417 47.835 C 318.692 47.971,318.977 48.177,319.050 48.291 C 319.123 48.406,319.292 48.500,319.425 48.500 C 319.558 48.500,319.667 48.567,319.667 48.649 C 319.667 48.730,319.872 48.849,320.123 48.912 C 320.374 48.975,320.634 49.114,320.701 49.222 C 320.875 49.503,324.198 49.491,324.292 49.208 C 324.330 49.094,324.465 49.000,324.592 49.000 C 324.873 49.000,326.166 48.345,326.470 48.048 C 326.591 47.930,326.867 47.789,327.083 47.735 C 327.299 47.681,327.516 47.531,327.566 47.402 C 327.616 47.272,327.734 47.167,327.828 47.167 C 327.923 47.167,328.140 47.035,328.310 46.875 C 328.481 46.715,329.044 46.219,329.560 45.774 C 330.077 45.329,330.500 44.862,330.500 44.738 C 330.500 44.614,330.650 44.431,330.833 44.333 C 331.017 44.235,331.167 44.045,331.167 43.911 C 331.167 43.777,331.237 43.667,331.322 43.667 C 331.408 43.667,331.530 43.498,331.595 43.292 C 331.659 43.085,331.794 42.864,331.895 42.800 C 332.100 42.668,331.292 41.877,330.555 41.489 C 330.306 41.357,329.873 41.041,329.593 40.786 C 329.313 40.530,328.915 40.278,328.708 40.226 C 328.502 40.173,328.333 40.075,328.333 40.006 C 328.333 39.814,326.396 38.500,326.113 38.500 C 325.899 38.500,325.167 39.706,325.167 40.060 C 325.167 40.126,325.090 40.271,324.997 40.382 C 324.352 41.147,324.166 41.405,324.089 41.645 C 323.516 43.413,320.733 42.687,320.141 40.615 C 320.031 40.231,319.877 39.831,319.798 39.726 C 319.719 39.621,319.609 38.777,319.552 37.851 L 319.450 36.167 325.891 36.167 L 332.333 36.167 332.332 32.708 C 332.330 27.448,332.127 26.264,331.000 24.946 C 330.163 23.967,327.585 21.502,327.392 21.495 C 327.314 21.493,327.044 21.281,326.792 21.024 C 326.541 20.767,326.128 20.451,325.876 20.321 C 325.623 20.190,325.357 19.990,325.283 19.875 C 325.210 19.761,325.041 19.667,324.908 19.667 C 324.775 19.667,324.667 19.601,324.667 19.522 C 324.667 19.442,324.329 19.282,323.917 19.167 C 323.504 19.051,323.167 18.891,323.167 18.812 C 323.167 18.732,322.717 18.667,322.167 18.667 C 321.617 18.667,321.167 18.733,321.167 18.814 M388.667 18.814 C 388.667 18.894,388.329 19.045,387.917 19.149 C 387.504 19.253,387.167 19.412,387.167 19.502 C 387.167 19.593,387.097 19.667,387.012 19.667 C 386.786 19.667,384.833 21.040,384.833 21.198 C 384.833 21.273,384.747 21.333,384.641 21.333 C 384.535 21.333,384.154 21.633,383.795 22.000 C 383.435 22.367,383.091 22.668,383.029 22.669 C 382.836 22.672,381.601 23.886,381.082 24.583 C 380.809 24.950,380.546 25.287,380.497 25.333 C 379.857 25.939,379.500 27.793,379.500 30.512 C 379.500 31.504,379.433 32.167,379.333 32.167 C 379.232 32.167,379.167 32.917,379.167 34.083 C 379.167 35.250,379.232 36.000,379.333 36.000 C 379.433 36.000,379.502 36.684,379.505 37.708 C 379.514 40.555,379.833 42.206,380.497 42.833 C 380.546 42.879,380.809 43.217,381.083 43.583 C 381.627 44.313,383.006 45.659,383.213 45.664 C 383.285 45.665,383.574 45.929,383.856 46.250 C 384.137 46.571,384.439 46.833,384.525 46.833 C 384.612 46.833,384.848 47.003,385.050 47.211 C 385.251 47.418,385.642 47.699,385.917 47.835 C 386.192 47.971,386.477 48.177,386.550 48.291 C 386.623 48.406,386.792 48.500,386.925 48.500 C 387.058 48.500,387.167 48.567,387.167 48.649 C 387.167 48.730,387.372 48.849,387.623 48.912 C 387.874 48.975,388.134 49.114,388.200 49.220 C 388.407 49.556,390.864 49.577,391.606 49.249 C 393.469 48.425,393.833 48.246,393.833 48.148 C 393.833 48.089,394.077 47.942,394.375 47.822 C 394.673 47.701,394.977 47.505,395.050 47.385 C 395.123 47.265,395.255 47.167,395.342 47.167 C 395.429 47.167,395.640 47.035,395.810 46.875 C 395.981 46.715,396.544 46.219,397.060 45.774 C 397.577 45.329,398.000 44.862,398.000 44.738 C 398.000 44.614,398.150 44.431,398.333 44.333 C 398.517 44.235,398.667 44.045,398.667 43.911 C 398.667 43.777,398.734 43.667,398.817 43.667 C 399.022 43.667,399.340 42.712,399.230 42.426 C 399.152 42.221,397.961 41.333,397.764 41.333 C 397.722 41.333,397.439 41.106,397.135 40.827 C 396.832 40.549,396.415 40.278,396.208 40.226 C 396.002 40.173,395.833 40.075,395.833 40.006 C 395.833 39.814,393.896 38.500,393.613 38.500 C 393.399 38.500,392.667 39.706,392.667 40.060 C 392.667 40.126,392.590 40.271,392.497 40.382 C 391.844 41.157,391.665 41.409,391.580 41.678 C 391.527 41.846,391.337 42.029,391.158 42.086 C 390.979 42.143,390.833 42.252,390.833 42.328 C 390.833 42.554,389.889 42.817,389.470 42.707 C 388.876 42.552,387.864 41.394,387.641 40.615 C 387.531 40.231,387.377 39.831,387.298 39.726 C 387.219 39.621,387.109 38.777,387.052 37.851 L 386.950 36.167 393.412 36.167 L 399.875 36.167 399.804 31.636 C 399.752 28.316,399.680 27.088,399.533 27.039 C 399.423 27.002,399.333 26.810,399.333 26.611 C 399.332 26.260,398.852 25.339,398.407 24.833 C 397.580 23.895,395.046 21.502,394.872 21.495 C 394.805 21.493,394.544 21.281,394.292 21.024 C 394.041 20.767,393.628 20.451,393.376 20.320 C 392.916 20.083,392.677 19.918,392.271 19.556 C 392.151 19.450,391.741 19.269,391.360 19.155 C 390.979 19.041,390.667 18.884,390.667 18.807 C 390.667 18.730,390.217 18.667,389.667 18.667 C 389.117 18.667,388.667 18.733,388.667 18.814 M132.368 31.542 L 132.417 43.750 132.816 44.833 C 133.036 45.429,133.280 45.942,133.358 45.972 C 133.436 46.003,133.500 46.129,133.500 46.252 C 133.500 46.375,133.595 46.575,133.710 46.696 C 133.826 46.818,134.012 47.123,134.123 47.375 C 134.235 47.627,134.403 47.833,134.496 47.833 C 134.590 47.833,134.667 47.925,134.667 48.038 C 134.667 48.312,136.019 49.499,136.332 49.500 C 136.634 49.500,138.333 48.351,138.333 48.146 C 138.333 48.066,138.433 48.000,138.554 48.000 C 138.676 48.000,139.220 47.664,139.763 47.254 C 140.306 46.844,140.812 46.507,140.887 46.504 C 140.962 46.502,141.123 46.406,141.243 46.292 C 141.364 46.177,141.659 45.942,141.898 45.768 C 142.476 45.350,142.447 44.981,141.781 44.308 C 141.477 44.001,141.179 43.619,141.119 43.458 C 141.059 43.298,140.943 43.167,140.860 43.167 C 140.778 43.167,140.614 42.810,140.496 42.375 C 140.378 41.940,140.199 41.478,140.099 41.350 C 139.972 41.187,139.902 37.790,139.867 30.225 L 139.818 19.333 136.068 19.333 L 132.319 19.333 132.368 31.542 M336.333 30.573 C 336.333 36.929,336.398 41.853,336.481 41.905 C 336.562 41.955,336.678 42.260,336.739 42.581 C 336.799 42.903,336.905 43.167,336.974 43.167 C 337.043 43.167,337.195 43.429,337.311 43.750 C 337.427 44.071,337.592 44.333,337.677 44.333 C 337.763 44.333,337.834 44.427,337.835 44.542 C 337.837 44.772,340.889 47.833,341.117 47.833 C 341.195 47.833,341.388 47.983,341.545 48.167 C 341.702 48.350,341.943 48.500,342.082 48.500 C 342.220 48.500,342.333 48.573,342.333 48.663 C 342.333 49.294,345.616 49.788,345.973 49.210 C 346.036 49.109,346.287 48.976,346.531 48.915 C 346.776 48.853,347.016 48.698,347.066 48.568 C 347.116 48.439,347.271 48.333,347.411 48.333 C 347.552 48.333,347.667 48.271,347.667 48.195 C 347.667 48.119,347.985 47.826,348.375 47.544 C 348.765 47.261,349.321 46.796,349.611 46.509 C 350.212 45.915,350.250 45.942,350.402 47.083 C 350.463 47.542,350.553 48.123,350.603 48.375 L 350.693 48.833 353.680 48.833 L 356.667 48.833 356.667 34.083 L 356.667 19.333 352.917 19.333 L 349.167 19.333 349.167 29.833 C 349.167 36.983,349.111 40.333,348.994 40.333 C 348.898 40.333,348.508 40.633,348.127 41.000 C 347.745 41.367,347.368 41.667,347.288 41.667 C 347.208 41.667,347.030 41.779,346.893 41.917 C 346.256 42.554,344.631 41.702,344.262 40.536 C 344.197 40.333,344.074 40.167,343.989 40.167 C 343.894 40.167,343.833 36.082,343.833 29.750 L 343.833 19.333 340.083 19.333 L 336.333 19.333 336.333 30.573 M222.201 25.822 C 223.013 26.511,223.333 26.839,223.333 26.984 C 223.333 27.075,223.439 27.210,223.569 27.283 C 223.712 27.364,223.876 27.929,223.986 28.720 C 224.286 30.888,224.589 30.667,221.333 30.667 L 218.500 30.667 218.500 30.083 C 218.500 29.762,218.566 29.500,218.647 29.500 C 218.729 29.500,218.846 29.087,218.909 28.583 C 218.972 28.079,219.085 27.667,219.161 27.667 C 219.236 27.667,219.345 27.477,219.403 27.246 C 219.461 27.014,219.657 26.677,219.838 26.496 C 220.019 26.315,220.167 26.069,220.167 25.949 C 220.167 25.420,221.619 25.329,222.201 25.822 M322.948 25.771 C 322.996 25.897,323.121 26.001,323.226 26.003 C 323.462 26.006,324.167 26.733,324.167 26.974 C 324.167 27.071,324.279 27.213,324.415 27.289 C 324.573 27.377,324.704 27.810,324.773 28.464 C 324.832 29.034,324.945 29.500,325.024 29.500 C 325.102 29.500,325.167 29.762,325.167 30.083 L 325.167 30.667 322.312 30.667 L 319.457 30.667 319.575 29.627 C 319.639 29.055,319.750 28.511,319.820 28.418 C 319.891 28.326,320.045 27.894,320.162 27.458 C 320.280 27.023,320.438 26.667,320.512 26.667 C 320.587 26.667,320.777 26.447,320.936 26.179 C 321.391 25.409,322.706 25.142,322.948 25.771 M390.472 25.834 C 390.503 25.925,390.615 26.001,390.722 26.003 C 390.961 26.006,391.667 26.731,391.667 26.974 C 391.667 27.071,391.779 27.213,391.915 27.289 C 392.073 27.377,392.204 27.810,392.273 28.464 C 392.332 29.034,392.445 29.500,392.524 29.500 C 392.602 29.500,392.667 29.762,392.667 30.083 L 392.667 30.667 389.812 30.667 L 386.957 30.667 387.075 29.627 C 387.139 29.055,387.250 28.511,387.320 28.418 C 387.391 28.326,387.545 27.894,387.662 27.458 C 387.780 27.023,387.938 26.667,388.012 26.667 C 388.087 26.667,388.277 26.447,388.436 26.179 C 388.889 25.413,390.254 25.181,390.472 25.834 M47.531 26.375 C 47.905 26.581,48.519 27.037,48.897 27.389 L 49.583 28.027 49.633 33.674 C 49.681 39.086,49.578 40.667,49.178 40.667 C 49.099 40.667,48.858 40.853,48.642 41.080 C 48.427 41.308,48.187 41.496,48.110 41.497 C 48.032 41.499,47.779 41.650,47.545 41.833 C 46.470 42.679,44.726 41.627,44.315 39.885 C 44.211 39.444,44.060 38.911,43.979 38.700 C 43.782 38.182,43.793 30.072,43.992 29.428 C 44.079 29.147,44.238 28.565,44.344 28.136 C 44.450 27.706,44.641 27.315,44.769 27.266 C 44.896 27.217,45.001 27.081,45.003 26.964 C 45.007 26.659,46.007 26.000,46.465 26.000 C 46.677 26.000,47.157 26.169,47.531 26.375 M0.167 60.833 L 0.167 65.667 179.000 65.667 L 357.833 65.667 357.833 60.833 L 357.833 56.000 179.000 56.000 L 0.167 56.000 0.167 60.833 " stroke="none" fill="#040404" fill-rule="evenodd"></path><path id="path2" d="" stroke="none" fill="#24a0c0" fill-rule="evenodd"></path><path id="path3" d="" stroke="none" fill="#245440" fill-rule="evenodd"></path><path id="path4" d="" stroke="none" fill="#240444" fill-rule="evenodd"></path></g></svg>