<?xml version="1.0" standalone="no"?>
<!DOCTYPE svg PUBLIC "-//W3C//DTD SVG 20010904//EN"
 "http://www.w3.org/TR/2001/REC-SVG-20010904/DTD/svg10.dtd">
<svg version="1.0" xmlns="http://www.w3.org/2000/svg"
 width="512.000000pt" height="512.000000pt" viewBox="0 0 512.000000 512.000000"
 preserveAspectRatio="xMidYMid meet">

<g transform="translate(0.000000,512.000000) scale(0.100000,-0.100000)"
fill="#000000" stroke="none">
<path d="M2420 5104 c-102 -27 -180 -73 -260 -153 -85 -86 -120 -144 -149
-251 -73 -262 57 -546 300 -659 178 -83 320 -83 498 0 243 113 373 397 300
659 -29 107 -64 165 -149 251 -81 82 -159 127 -265 154 -74 19 -202 18 -275
-1z"/>
<path d="M2426 3114 c-203 -49 -372 -220 -421 -425 -45 -194 10 -385 155 -529
179 -179 429 -220 659 -107 89 43 205 159 248 248 113 230 72 480 -107 659
-144 145 -340 201 -534 154z"/>
<path d="M2434 1126 c-211 -51 -380 -220 -429 -427 -30 -130 -10 -286 53 -404
41 -76 165 -195 242 -233 233 -113 481 -73 660 107 85 86 120 144 149 251 73
262 -57 546 -300 659 -46 21 -108 44 -137 50 -68 14 -173 13 -238 -3z"/>
</g>
</svg>
