<?xml version="1.0" standalone="no"?>
<!DOCTYPE svg PUBLIC "-//W3C//DTD SVG 20010904//EN"
 "http://www.w3.org/TR/2001/REC-SVG-20010904/DTD/svg10.dtd">
<svg version="1.0" xmlns="http://www.w3.org/2000/svg"
 width="512.000000pt" height="512.000000pt" viewBox="0 0 512.000000 512.000000"
 preserveAspectRatio="xMidYMid meet">

<g transform="translate(0.000000,512.000000) scale(0.100000,-0.100000)"
fill="#000000" stroke="none">
<path d="M2270 4865 c-254 -35 -499 -109 -725 -219 -722 -352 -1202 -1037
-1295 -1845 -20 -167 -8 -476 24 -641 32 -171 74 -320 127 -452 317 -798 1037
-1350 1899 -1458 112 -14 394 -13 512 0 266 32 526 108 763 225 385 188 682
449 922 808 241 359 393 857 381 1244 -3 102 -5 113 -33 159 -81 130 -261 153
-370 47 -60 -59 -72 -98 -84 -276 -13 -187 -38 -319 -92 -482 -95 -285 -250
-528 -470 -740 -202 -194 -423 -327 -689 -416 -220 -73 -292 -83 -580 -83
-228 0 -266 2 -360 22 -246 54 -467 147 -675 286 -167 112 -371 315 -478 476
-171 258 -273 527 -308 813 -17 146 -6 464 21 592 50 237 142 455 282 667 101
153 312 369 453 464 261 177 522 280 802 320 164 23 485 15 627 -16 281 -60
524 -170 751 -340 105 -79 245 -212 245 -234 0 -12 -49 -15 -342 -18 -322 -3
-346 -5 -388 -24 -93 -43 -150 -127 -150 -224 0 -97 57 -181 150 -224 44 -21
58 -21 650 -21 592 0 606 0 650 21 58 26 108 76 134 134 20 44 21 62 24 597 4
605 0 669 -45 742 -79 127 -260 149 -368 44 -69 -67 -75 -91 -75 -330 0 -116
-4 -214 -8 -217 -5 -3 -48 29 -98 70 -341 287 -761 470 -1207 529 -143 18
-442 18 -577 0z"/>
</g>
</svg>
