<?xml version="1.0" standalone="no"?>
<!DOCTYPE svg PUBLIC "-//W3C//DTD SVG 20010904//EN"
 "http://www.w3.org/TR/2001/REC-SVG-20010904/DTD/svg10.dtd">
<svg version="1.0" xmlns="http://www.w3.org/2000/svg"
 width="512.000000pt" height="512.000000pt" viewBox="0 0 512.000000 512.000000"
 preserveAspectRatio="xMidYMid meet">

<g transform="translate(0.000000,512.000000) scale(0.100000,-0.100000)"
fill="#000000" stroke="none">
<path d="M1861 5104 c-219 -30 -434 -96 -646 -199 -226 -109 -388 -226 -581
-419 -193 -193 -310 -355 -419 -581 -149 -307 -215 -595 -215 -940 0 -486 145
-915 443 -1310 78 -103 299 -324 402 -402 320 -241 675 -386 1065 -433 209
-25 505 -8 720 41 302 70 610 214 831 389 28 22 58 40 67 40 9 0 300 -283 647
-630 438 -438 641 -634 667 -645 166 -68 331 97 263 263 -11 26 -207 229 -645
667 -347 347 -630 638 -630 647 0 9 18 39 40 67 194 246 349 597 411 936 26
138 36 460 20 602 -46 397 -189 753 -434 1078 -78 103 -299 324 -402 402 -313
236 -657 379 -1028 428 -146 19 -433 18 -576 -1z m563 -410 c181 -26 361 -85
536 -175 618 -319 988 -979 940 -1675 -50 -705 -517 -1314 -1179 -1534 -1041
-347 -2129 312 -2297 1391 -21 137 -21 391 0 528 42 266 148 530 303 751 86
122 291 327 413 413 116 81 294 174 414 216 290 102 565 129 870 85z"/>
</g>
</svg>
