<?xml version="1.0" standalone="no"?>
<!DOCTYPE svg PUBLIC "-//W3C//DTD SVG 20010904//EN"
 "http://www.w3.org/TR/2001/REC-SVG-20010904/DTD/svg10.dtd">
<svg version="1.0" xmlns="http://www.w3.org/2000/svg"
 width="512.000000pt" height="512.000000pt" viewBox="0 0 512.000000 512.000000"
 preserveAspectRatio="xMidYMid meet">

<g transform="translate(0.000000,512.000000) scale(0.100000,-0.100000)"
fill="#000000" stroke="none">
<path d="M110 5049 c-32 -13 -78 -56 -96 -91 -10 -19 -14 -65 -14 -158 0 -139
6 -165 52 -207 59 -56 -5 -53 1305 -53 1153 0 1210 1 1248 19 87 40 105 82
105 241 0 129 -7 160 -48 204 -56 59 16 56 -1309 55 -782 0 -1227 -4 -1243
-10z"/>
<path d="M3736 4965 c-47 -17 -94 -59 -112 -102 -12 -27 -14 -343 -14 -1943 0
-1789 -1 -1910 -17 -1910 -9 0 -148 130 -307 289 -246 244 -298 291 -333 302
-71 20 -113 1 -216 -100 -49 -47 -95 -98 -103 -113 -24 -46 -18 -119 14 -166
39 -58 1134 -1140 1167 -1152 38 -14 80 -12 123 5 43 18 1104 1071 1153 1144
22 34 29 56 29 93 0 66 -14 89 -117 189 -103 101 -145 120 -215 100 -36 -11
-88 -58 -334 -302 -159 -159 -298 -289 -307 -289 -16 0 -17 121 -17 1910 0
1582 -2 1916 -14 1943 -17 43 -76 93 -123 106 -54 15 -211 13 -257 -4z"/>
<path d="M110 3979 c-32 -13 -78 -56 -96 -91 -10 -19 -14 -65 -14 -158 0 -139
6 -165 52 -207 59 -55 10 -53 1143 -53 1133 0 1084 -2 1143 53 46 42 52 68 52
207 0 93 -4 139 -14 158 -19 36 -65 78 -99 91 -38 15 -2131 14 -2167 0z"/>
<path d="M110 2909 c-32 -13 -78 -56 -96 -91 -20 -38 -20 -278 0 -316 19 -36
65 -78 99 -91 19 -8 315 -11 922 -11 607 0 903 3 922 11 35 13 79 54 101 94
13 23 17 57 17 155 0 98 -4 132 -17 155 -22 40 -66 81 -101 94 -38 15 -1811
14 -1847 0z"/>
<path d="M105 1715 c-42 -20 -59 -35 -84 -75 -19 -31 -21 -50 -21 -169 0 -152
11 -186 77 -231 l37 -25 749 -3 c734 -2 751 -2 792 18 78 38 105 99 105 240 0
141 -27 202 -105 240 -40 19 -62 20 -781 20 -614 -1 -744 -3 -769 -15z"/>
<path d="M110 644 c-42 -18 -77 -49 -96 -86 -20 -38 -20 -278 0 -316 19 -36
65 -78 99 -91 46 -18 1168 -15 1210 3 48 20 94 72 106 121 14 55 14 198 0 248
-13 47 -63 106 -106 123 -51 22 -1164 19 -1213 -2z"/>
</g>
</svg>
